<svg xmlns="http://www.w3.org/2000/svg" xmlns:xlink="http://www.w3.org/1999/xlink" version="1.1" id="Layer_1" x="0px" y="0px" width="100px" height="100px" viewBox="0 0 100 100" enable-background="new 0 0 100 100" xml:space="preserve">
<path d="M26.323,94.479c-0.122,0.305-0.035,0.061-0.062,0.118l-0.002-0.043l-0.003-0.084l-0.007-0.168l-0.015-0.337l-0.027-0.673  l-0.055-1.347l-0.111-2.692l-0.227-5.385l-0.015-0.337l-0.008-0.163l-0.012-0.162c-0.018-0.217-0.044-0.433-0.08-0.646  c-0.071-0.429-0.181-0.85-0.325-1.258c-0.29-0.817-0.727-1.581-1.276-2.254c-0.274-0.337-0.576-0.651-0.899-0.943  c-0.081-0.072-0.163-0.145-0.247-0.214l-0.126-0.104l-0.132-0.106c-0.174-0.141-0.351-0.286-0.522-0.431  c-0.693-0.582-1.368-1.186-2.021-1.812c-2.614-2.502-4.897-5.353-6.767-8.454c-1.871-3.102-3.318-6.459-4.296-9.948  C8.11,53.546,7.607,49.924,7.584,46.3c-0.023-3.625,0.433-7.255,1.366-10.761c0.933-3.505,2.342-6.885,4.172-10.018  c1.831-3.134,4.084-6.019,6.673-8.562s5.515-4.744,8.678-6.523c3.163-1.781,6.563-3.141,10.084-4.029  c3.52-0.89,7.158-1.307,10.787-1.252c3.63,0.053,7.253,0.579,10.746,1.576c1.746,0.498,3.461,1.111,5.125,1.838  s3.279,1.563,4.832,2.504c3.107,1.879,5.965,4.171,8.475,6.795c0.312,0.328,0.621,0.661,0.924,1l0.225,0.254l0.225,0.257  c0.152,0.177,0.297,0.352,0.439,0.532c0.574,0.718,1.098,1.479,1.555,2.278s0.85,1.637,1.172,2.497  c0.324,0.861,0.582,1.743,0.791,2.632c0.416,1.78,0.641,3.58,0.859,5.364c0.215,1.786,0.424,3.563,0.715,5.324l-0.039-0.12  l3.426,6.771l1.715,3.384l0.861,1.69c0.293,0.585,0.543,1.194,0.727,1.831c0.182,0.636,0.299,1.3,0.301,1.978  c0.006,0.677-0.109,1.37-0.383,2.01c-0.271,0.64-0.705,1.212-1.229,1.655l-1.443,1.23l-5.773,4.923l0.131-0.271l-0.301,6.508  l-0.16,3.254l-0.086,1.628l-0.047,0.816c-0.01,0.132-0.02,0.283-0.037,0.425c-0.018,0.143-0.039,0.284-0.066,0.425  c-0.215,1.125-0.705,2.182-1.395,3.086c-0.688,0.904-1.588,1.65-2.611,2.15c-1.021,0.503-2.154,0.756-3.279,0.792  c-0.141,0.005-0.281,0.006-0.422,0.005l-0.408-0.007l-0.812-0.013c-0.543-0.008-1.088-0.017-1.631-0.03  c-2.178-0.052-4.361-0.174-6.527-0.462c-2.168-0.285-4.316-0.733-6.408-1.376c-2.092-0.641-4.125-1.476-6.061-2.495  c-1.934-1.02-3.77-2.221-5.49-3.565c-0.095-0.074-0.111-0.212-0.037-0.307c0.068-0.088,0.193-0.108,0.286-0.051l0.019,0.012  c1.837,1.152,3.734,2.172,5.699,2.998c1.959,0.835,3.979,1.479,6.025,1.947c2.051,0.46,4.125,0.754,6.217,0.884  c1.045,0.063,2.094,0.104,3.146,0.107c1.055,0.007,2.111-0.017,3.18-0.056l3.137-0.12c0.818-0.057,1.566-0.265,2.211-0.612  c0.646-0.348,1.195-0.841,1.617-1.439c0.211-0.298,0.389-0.622,0.525-0.956s0.232-0.68,0.281-1.007  c0.014-0.082,0.021-0.162,0.027-0.241l0.006-0.059c0-0.019,0.002-0.042,0.002-0.05v-0.028l0.002-0.026v-0.012  c0,0.002,0.002-0.024,0,0.002l0.002-0.096l0.004-0.793l0.002-1.617l0.002-3.252c0.006-2.17,0.008-4.343,0.02-6.512  c0.004-0.793,0.344-1.505,0.885-2.003l0.16-0.146l2.801-2.561l2.809-2.554l1.406-1.272l0.027-0.026l0.021-0.021  c0.014-0.014,0.025-0.027,0.037-0.041c0.021-0.026,0.041-0.052,0.057-0.075c0.031-0.049,0.055-0.094,0.074-0.148  s0.037-0.122,0.051-0.21c0.012-0.088,0.02-0.196,0.016-0.326c-0.008-0.258-0.062-0.595-0.178-0.963  c-0.055-0.185-0.125-0.377-0.207-0.573c-0.041-0.099-0.086-0.198-0.133-0.298l-0.072-0.15l-0.074-0.146l-0.904-1.659  c-0.607-1.113-1.211-2.225-1.811-3.34l-1.797-3.344l-1.785-3.35c-0.16-0.299-0.268-0.612-0.324-0.93l-0.023-0.133  c-0.336-1.872-0.572-3.728-0.809-5.488s-0.471-3.422-0.836-4.903c-0.184-0.742-0.398-1.439-0.654-2.097  c-0.258-0.658-0.557-1.277-0.904-1.874c-0.348-0.596-0.748-1.167-1.199-1.723l-0.172-0.207l-0.166-0.195l-0.199-0.224l-0.203-0.227  c-0.273-0.301-0.553-0.597-0.836-0.889c-1.133-1.166-2.336-2.264-3.609-3.273s-2.613-1.935-4.002-2.774  c-1.393-0.838-2.838-1.583-4.326-2.229c-1.488-0.647-3.016-1.201-4.576-1.648c-3.121-0.894-6.357-1.388-9.615-1.45  c-1.629-0.034-3.26,0.031-4.879,0.207c-0.809,0.087-1.614,0.201-2.416,0.341c-0.803,0.138-1.6,0.303-2.392,0.493  c-1.583,0.38-3.14,0.871-4.661,1.455c-1.522,0.584-3.007,1.27-4.441,2.052c-1.435,0.781-2.823,1.652-4.147,2.616  s-2.59,2.011-3.783,3.138c-2.384,2.257-4.485,4.825-6.217,7.633c-0.868,1.402-1.643,2.864-2.319,4.373  c-0.679,1.508-1.258,3.063-1.73,4.653c-0.476,1.59-0.847,3.215-1.107,4.861c-0.263,1.646-0.42,3.313-0.466,4.989  c-0.049,1.676,0.01,3.357,0.182,5.03c0.169,1.673,0.449,3.339,0.84,4.982c0.388,1.646,0.891,3.267,1.494,4.855  c0.604,1.589,1.319,3.14,2.127,4.647c0.811,1.506,1.725,2.963,2.734,4.356c1.006,1.397,2.103,2.737,3.29,4  c0.592,0.633,1.21,1.243,1.842,1.841c0.16,0.151,0.31,0.29,0.48,0.445l0.031,0.028c0.013,0.012-0.006-0.002,0.02,0.019l0.071,0.063  l0.142,0.129c0.094,0.087,0.186,0.176,0.276,0.266c0.364,0.36,0.702,0.749,1.008,1.164c0.611,0.828,1.089,1.763,1.383,2.745  c0.146,0.492,0.248,0.994,0.305,1.499c0.028,0.251,0.047,0.504,0.054,0.756L27,83.301c0,0.065,0.001,0.135-0.001,0.187l-0.006,0.335  c-0.018,0.9-0.031,1.801-0.055,2.701l-0.066,2.699c-0.022,0.899-0.053,1.8-0.079,2.7l-0.045,1.35l-0.023,0.676l-0.013,0.337  l-0.007,0.169l-0.003,0.085L26.7,94.581c-0.027,0.085,0.06-0.132-0.062,0.202c-0.084,0.086-0.223,0.089-0.309,0.005  C26.242,94.704,26.239,94.566,26.323,94.479z"></path>
</svg>
