<?xml version="1.0" encoding="UTF-8" standalone="no"?>
<!-- Created with Inkscape (http://www.inkscape.org/) -->

<svg
   xmlns:dc="http://purl.org/dc/elements/1.1/"
   xmlns:cc="http://creativecommons.org/ns#"
   xmlns:rdf="http://www.w3.org/1999/02/22-rdf-syntax-ns#"
   xmlns:svg="http://www.w3.org/2000/svg"
   xmlns="http://www.w3.org/2000/svg"
   xmlns:sodipodi="http://sodipodi.sourceforge.net/DTD/sodipodi-0.dtd"
   xmlns:inkscape="http://www.inkscape.org/namespaces/inkscape"
   width="744.09448819"
   height="1052.3622047"
   id="svg3197"
   version="1.1"
   inkscape:version="0.48.3.1 r9886"
   sodipodi:docname="source_stuff.svg">
  <defs
     id="defs3199">
    <inkscape:path-effect
       effect="knot"
       id="path-effect6341"
       is_visible="false"
       interruption_width="3"
       prop_to_stroke_width="true"
       add_stroke_width="true"
       add_other_stroke_width="true"
       switcher_size="15"
       crossing_points_vector="225.51804 | 915.38988 | 0 | 0 | 0 | 56 | 1.5526106e-14 | 45 | 1 | 225.51804 | 915.38988 | 0 | 0 | 0 | 0 | 1.5526106e-14 | 45.25 | 1 | 225.51804 | 915.38988 | 0 | 0 | 1 | 0 | 3.4157434e-13 | 45.75 | 1 | 223.46779 | 915.91807 | 0 | 2 | 2 | 0 | 0.49987107 | 0.15450733 | 1 | 223.46779 | 928.5725 | 0 | 2 | 3 | 1 | 2.4399978 | 0.24661943 | 1 | 251.71663 | 926.42277 | 0 | 3 | 4 | 1 | 4.8525551 | 0.37067729 | 1 | 255.1451 | 930.1337 | 0 | 5 | 5 | 3 | 6.2565291 | 0.67036198 | 1 | 251.71663 | 933.18259 | 0 | 3 | 6 | 3 | 7.5063872 | 0.41988232 | 1 | 241.25163 | 944.30128 | 0 | 0 | 0 | 0 | 10.000004 | 11.000004 | 1 | 241.25152 | 944.30128 | 0 | 0 | 0 | 0 | 10.000011 | 11.000004 | 1 | 241.25163 | 944.30128 | 0 | 0 | 0 | 0 | 10.000004 | 11.000011 | 1 | 241.25152 | 944.30128 | 0 | 0 | 0 | 0 | 10.000011 | 11.000011 | 1 | 241.25141 | 944.30128 | 0 | 0 | 0 | 0 | 10.000019 | 11.000004 | 1 | 241.2513 | 944.30128 | 0 | 0 | 0 | 0 | 10.000027 | 11.000004 | 1 | 241.25141 | 944.30128 | 0 | 0 | 0 | 0 | 10.000019 | 11.000011 | 1 | 241.2513 | 944.30128 | 0 | 0 | 0 | 0 | 10.000027 | 11.000011 | 1 | 241.25163 | 944.30128 | 0 | 0 | 0 | 0 | 10.000004 | 11.000019 | 1 | 241.25163 | 944.30128 | 0 | 0 | 0 | 0 | 10.000004 | 11.000027 | 1 | 241.25152 | 944.30128 | 0 | 0 | 0 | 0 | 10.000011 | 11.000019 | 1 | 241.25152 | 944.30128 | 0 | 0 | 0 | 0 | 10.000011 | 11.000027 | 1 | 241.25141 | 944.30128 | 0 | 0 | 0 | 0 | 10.000019 | 11.000019 | 1 | 241.2513 | 944.30128 | 0 | 0 | 0 | 0 | 10.000027 | 11.000019 | 1 | 241.25141 | 944.30128 | 0 | 0 | 0 | 0 | 10.000019 | 11.000027 | 1 | 241.2513 | 944.30128 | 0 | 0 | 0 | 0 | 10.000027 | 11.000027 | 1 | 241.2512 | 944.30128 | 0 | 0 | 0 | 0 | 10.000034 | 11.000004 | 1 | 241.25109 | 944.30128 | 0 | 0 | 0 | 0 | 10.000042 | 11.000004 | 1 | 241.2512 | 944.30128 | 0 | 0 | 0 | 0 | 10.000034 | 11.000011 | 1 | 241.25109 | 944.30128 | 0 | 0 | 0 | 0 | 10.000042 | 11.000011 | 1 | 241.25098 | 944.30128 | 0 | 0 | 0 | 0 | 10.00005 | 11.000004 | 1 | 241.25087 | 944.30128 | 0 | 0 | 0 | 0 | 10.000057 | 11.000004 | 1 | 241.25098 | 944.30128 | 0 | 0 | 0 | 0 | 10.00005 | 11.000011 | 1 | 241.25087 | 944.30128 | 0 | 0 | 0 | 0 | 10.000057 | 11.000011 | 1 | 241.2512 | 944.30128 | 0 | 0 | 0 | 0 | 10.000034 | 11.000019 | 1 | 241.25109 | 944.30128 | 0 | 0 | 0 | 0 | 10.000042 | 11.000019 | 1 | 241.2512 | 944.30128 | 0 | 0 | 0 | 0 | 10.000034 | 11.000027 | 1 | 241.25109 | 944.30128 | 0 | 0 | 0 | 0 | 10.000042 | 11.000027 | 1 | 241.25098 | 944.30128 | 0 | 0 | 0 | 0 | 10.00005 | 11.000019 | 1 | 241.25087 | 944.30128 | 0 | 0 | 0 | 0 | 10.000057 | 11.000019 | 1 | 241.25098 | 944.30128 | 0 | 0 | 0 | 0 | 10.00005 | 11.000027 | 1 | 241.25087 | 944.30128 | 0 | 0 | 0 | 0 | 10.000057 | 11.000027 | 1 | 241.25163 | 944.30128 | 0 | 0 | 0 | 0 | 10.000004 | 11.000034 | 1 | 241.25163 | 944.30128 | 0 | 0 | 0 | 0 | 10.000004 | 11.000042 | 1 | 241.25163 | 944.30128 | 0 | 0 | 0 | 0 | 10.000004 | 30.000004 | 1 | 241.25152 | 944.30128 | 0 | 0 | 0 | 0 | 10.000011 | 30.000004 | 1 | 241.25163 | 944.30128 | 0 | 0 | 0 | 0 | 10.000004 | 30.000011 | 1 | 241.25152 | 944.30128 | 0 | 0 | 0 | 0 | 10.000011 | 30.000011 | 1 | 241.25141 | 944.30128 | 0 | 0 | 0 | 0 | 10.000019 | 30.000004 | 1 | 241.2513 | 944.30128 | 0 | 0 | 0 | 0 | 10.000027 | 30.000004 | 1 | 241.25141 | 944.30128 | 0 | 0 | 0 | 0 | 10.000019 | 30.000011 | 1 | 241.2513 | 944.30128 | 0 | 0 | 0 | 0 | 10.000027 | 30.000011 | 1 | 241.25163 | 944.30128 | 0 | 0 | 0 | 0 | 10.000004 | 30.000019 | 1 | 241.25163 | 944.30128 | 0 | 0 | 0 | 0 | 10.000004 | 30.000027 | 1 | 241.25152 | 944.30128 | 0 | 0 | 0 | 0 | 10.000011 | 30.000019 | 1 | 241.25152 | 944.30128 | 0 | 0 | 8 | 0 | 10.000011 | 30.000027 | 1 | 241.25141 | 944.30128 | 0 | 0 | 0 | 0 | 10.000019 | 30.000019 | 1 | 241.2513 | 944.30128 | 0 | 0 | 0 | 0 | 10.000027 | 30.000019 | 1 | 241.25141 | 944.30128 | 0 | 0 | 9 | 0 | 10.000019 | 30.000027 | 1 | 241.2513 | 944.30128 | 0 | 0 | 10 | 0 | 10.000027 | 30.000027 | 1 | 241.2512 | 944.30128 | 0 | 0 | 0 | 0 | 10.000034 | 30.000004 | 1 | 241.25109 | 944.30128 | 0 | 0 | 0 | 0 | 10.000042 | 30.000004 | 1 | 241.2512 | 944.30128 | 0 | 0 | 0 | 0 | 10.000034 | 30.000011 | 1 | 241.25109 | 944.30128 | 0 | 0 | 0 | 0 | 10.000042 | 30.000011 | 1 | 241.25098 | 944.30128 | 0 | 0 | 0 | 0 | 10.00005 | 30.000004 | 1 | 241.25087 | 944.30128 | 0 | 0 | 0 | 0 | 10.000057 | 30.000004 | 1 | 241.25098 | 944.30128 | 0 | 0 | 0 | 0 | 10.00005 | 30.000011 | 1 | 241.25087 | 944.30128 | 0 | 0 | 0 | 0 | 10.000057 | 30.000011 | 1 | 241.2512 | 944.30128 | 0 | 0 | 0 | 0 | 10.000034 | 30.000019 | 1 | 241.25109 | 944.30128 | 0 | 0 | 0 | 0 | 10.000042 | 30.000019 | 1 | 241.2512 | 944.30128 | 0 | 0 | 11 | 0 | 10.000034 | 30.000027 | 1 | 241.25109 | 944.30128 | 0 | 0 | 12 | 0 | 10.000042 | 30.000027 | 1 | 241.25098 | 944.30128 | 0 | 0 | 0 | 0 | 10.00005 | 30.000019 | 1 | 241.25087 | 944.30128 | 0 | 0 | 0 | 0 | 10.000057 | 30.000019 | 1 | 241.25098 | 944.30128 | 0 | 0 | 13 | 0 | 10.00005 | 30.000027 | 1 | 241.25087 | 944.30128 | 0 | 0 | 14 | 0 | 10.000057 | 30.000027 | 1 | 241.25163 | 944.30128 | 0 | 0 | 0 | 0 | 10.000004 | 30.000034 | 1 | 241.25163 | 944.30128 | 0 | 0 | 7 | 0 | 10.000004 | 30.000042 | 1 | 227.15935 | 944.30128 | 0 | 0 | 0 | 0 | 11.000004 | 30.000004 | 1 | 227.15924 | 944.30128 | 0 | 0 | 0 | 0 | 11.000011 | 30.000004 | 1 | 227.15935 | 944.30128 | 0 | 0 | 0 | 0 | 11.000004 | 30.000011 | 1 | 227.15924 | 944.30128 | 0 | 0 | 0 | 0 | 11.000011 | 30.000011 | 1 | 227.15913 | 944.30128 | 0 | 0 | 0 | 0 | 11.000019 | 30.000004 | 1 | 227.15902 | 944.30128 | 0 | 0 | 0 | 0 | 11.000027 | 30.000004 | 1 | 227.15913 | 944.30128 | 0 | 0 | 0 | 0 | 11.000019 | 30.000011 | 1 | 227.15902 | 944.30128 | 0 | 0 | 0 | 0 | 11.000027 | 30.000011 | 1 | 227.15935 | 944.30128 | 0 | 0 | 0 | 0 | 11.000004 | 30.000019 | 1 | 227.15935 | 944.30128 | 0 | 0 | 0 | 0 | 11.000004 | 30.000027 | 1 | 227.15924 | 944.30128 | 0 | 0 | 0 | 0 | 11.000011 | 30.000019 | 1 | 227.15924 | 944.30128 | 0 | 0 | 16 | 0 | 11.000011 | 30.000027 | 1 | 227.15913 | 944.30128 | 0 | 0 | 0 | 0 | 11.000019 | 30.000019 | 1 | 227.15902 | 944.30128 | 0 | 0 | 0 | 0 | 11.000027 | 30.000019 | 1 | 227.15913 | 944.30128 | 0 | 0 | 17 | 0 | 11.000019 | 30.000027 | 1 | 227.15902 | 944.30128 | 0 | 0 | 18 | 0 | 11.000027 | 30.000027 | 1 | 227.15892 | 944.30128 | 0 | 0 | 0 | 0 | 11.000034 | 30.000004 | 1 | 227.15881 | 944.30128 | 0 | 0 | 0 | 0 | 11.000042 | 30.000004 | 1 | 227.15892 | 944.30128 | 0 | 0 | 0 | 0 | 11.000034 | 30.000011 | 1 | 227.15881 | 944.30128 | 0 | 0 | 0 | 0 | 11.000042 | 30.000011 | 1 | 227.1587 | 944.30128 | 0 | 0 | 0 | 0 | 11.00005 | 30.000004 | 1 | 227.15859 | 944.30128 | 0 | 0 | 0 | 45 | 11.000057 | 30.000004 | 1 | 227.1587 | 944.30128 | 0 | 0 | 0 | 0 | 11.00005 | 30.000011 | 1 | 227.15859 | 944.30128 | 0 | 0 | 0 | 46 | 11.000057 | 30.000011 | 1 | 227.15892 | 944.30128 | 0 | 0 | 0 | 0 | 11.000034 | 30.000019 | 1 | 227.15881 | 944.30128 | 0 | 0 | 0 | 0 | 11.000042 | 30.000019 | 1 | 227.15892 | 944.30128 | 0 | 0 | 19 | 0 | 11.000034 | 30.000027 | 1 | 227.15881 | 944.30128 | 0 | 0 | 20 | 0 | 11.000042 | 30.000027 | 1 | 227.1587 | 944.30128 | 0 | 0 | 0 | 0 | 11.00005 | 30.000019 | 1 | 227.15859 | 944.30128 | 0 | 0 | 0 | 47 | 11.000057 | 30.000019 | 1 | 227.1587 | 944.30128 | 0 | 0 | 21 | 0 | 11.00005 | 30.000027 | 1 | 227.15859 | 944.30128 | 0 | 0 | 22 | 48 | 11.000057 | 30.000027 | 1 | 227.15935 | 944.30128 | 0 | 0 | 0 | 49 | 11.000004 | 30.000034 | 1 | 227.15935 | 944.30128 | 0 | 0 | 15 | 50 | 11.000004 | 30.000042 | 1 | 223.46779 | 944.30128 | 0 | 2 | 23 | 3 | 11.261525 | 0.36110986 | 1 | 213.04371 | 944.30132 | 0 | 0 | 0 | 0 | 12.000004 | 13.000004 | 1 | 213.04371 | 944.30141 | 0 | 0 | 0 | 0 | 12.000011 | 13.000004 | 1 | 213.04371 | 944.30132 | 0 | 0 | 0 | 0 | 12.000004 | 13.000011 | 1 | 213.04371 | 944.30141 | 0 | 0 | 0 | 0 | 12.000011 | 13.000011 | 1 | 213.04371 | 944.30149 | 0 | 0 | 0 | 0 | 12.000019 | 13.000004 | 1 | 213.04371 | 944.30158 | 0 | 0 | 0 | 0 | 12.000027 | 13.000004 | 1 | 213.04371 | 944.30149 | 0 | 0 | 0 | 0 | 12.000019 | 13.000011 | 1 | 213.04371 | 944.30158 | 0 | 0 | 0 | 0 | 12.000027 | 13.000011 | 1 | 213.04371 | 944.30132 | 0 | 0 | 0 | 0 | 12.000004 | 13.000019 | 1 | 213.04371 | 944.30132 | 0 | 0 | 0 | 0 | 12.000004 | 13.000027 | 1 | 213.04371 | 944.30141 | 0 | 0 | 0 | 0 | 12.000011 | 13.000019 | 1 | 213.04371 | 944.30141 | 0 | 0 | 25 | 0 | 12.000011 | 13.000027 | 1 | 213.04371 | 944.30149 | 0 | 0 | 0 | 0 | 12.000019 | 13.000019 | 1 | 213.04371 | 944.30158 | 0 | 0 | 0 | 0 | 12.000027 | 13.000019 | 1 | 213.04371 | 944.30149 | 0 | 0 | 26 | 0 | 12.000019 | 13.000027 | 1 | 213.04371 | 944.30158 | 0 | 0 | 27 | 0 | 12.000027 | 13.000027 | 1 | 213.04371 | 944.30166 | 0 | 0 | 0 | 0 | 12.000034 | 13.000004 | 1 | 213.04371 | 944.30175 | 0 | 0 | 0 | 0 | 12.000042 | 13.000004 | 1 | 213.04371 | 944.30166 | 0 | 0 | 0 | 0 | 12.000034 | 13.000011 | 1 | 213.04371 | 944.30175 | 0 | 0 | 0 | 0 | 12.000042 | 13.000011 | 1 | 213.04371 | 944.30183 | 0 | 0 | 0 | 0 | 12.00005 | 13.000004 | 1 | 213.04371 | 944.30192 | 0 | 0 | 0 | 32 | 12.000057 | 13.000004 | 1 | 213.04371 | 944.30183 | 0 | 0 | 0 | 0 | 12.00005 | 13.000011 | 1 | 213.04371 | 944.30192 | 0 | 0 | 0 | 33 | 12.000057 | 13.000011 | 1 | 213.04371 | 944.30166 | 0 | 0 | 0 | 0 | 12.000034 | 13.000019 | 1 | 213.04371 | 944.30175 | 0 | 0 | 0 | 0 | 12.000042 | 13.000019 | 1 | 213.04371 | 944.30166 | 0 | 0 | 28 | 0 | 12.000034 | 13.000027 | 1 | 213.04371 | 944.30175 | 0 | 0 | 29 | 0 | 12.000042 | 13.000027 | 1 | 213.04371 | 944.30183 | 0 | 0 | 0 | 0 | 12.00005 | 13.000019 | 1 | 213.04371 | 944.30192 | 0 | 0 | 0 | 34 | 12.000057 | 13.000019 | 1 | 213.04371 | 944.30183 | 0 | 0 | 30 | 0 | 12.00005 | 13.000027 | 1 | 213.04371 | 944.30192 | 0 | 0 | 31 | 35 | 12.000057 | 13.000027 | 1 | 213.04371 | 944.30132 | 0 | 0 | 0 | 36 | 12.000004 | 13.000034 | 1 | 213.04371 | 944.30132 | 0 | 0 | 24 | 37 | 12.000004 | 13.000042 | 1 | 213.04371 | 958.41797 | 0 | 6 | 38 | 5 | 13.262144 | 0.84079036 | 1 | 223.46779 | 966.68601 | 0 | 2 | 39 | 5 | 14.652806 | 0.52404919 | 1 | 251.71663 | 974.5329 | 0 | 3 | 40 | 5 | 17.516864 | 0.72087288 | 1 | 279.96549 | 966.69265 | 0 | 4 | 41 | 5 | 20.136686 | 0.45424328 | 1 | 308.21431 | 979.65585 | 0 | 8 | 42 | 3 | 24.158675 | 0.67787443 | 1 | 315.47037 | 958.41797 | 0 | 6 | 43 | 0 | 27.318021 | 0.095222257 | 1 | 308.21429 | 947.33808 | 0 | 8 | 44 | 1 | 28.806182 | 0.44263195 | 1 | 279.96545 | 944.30128 | 0 | 4 | 51 | 3 | 30.600931 | 0.29125703 | 1 | 261.3023 | 930.1337 | 0 | 5 | 52 | 2 | 33.740734 | 0.62554349 | 1 | 279.96545 | 926.21591 | 0 | 4 | 53 | 1 | 35.36613 | 0.15961287 | 1 | 279.96545 | 918.4558 | 0 | 4 | 54 | 0 | 39.650653 | 0.10312672 | 1 | 251.71663 | 917.9569 | 0 | 3 | 55 | 0 | 42.324104 | 0.30905389 | 1 | 225.51804 | 915.38988 | 0 | 0 | 0 | 58 | 45 | 45.25 | 1 | 225.51804 | 915.38988 | 0 | 0 | 57 | 59 | 45 | 45.75 | 1 | 300.79174 | 986.70225 | 1 | 7 | 0 | 2 | 1.254991 | 0.26824527 | 1 | 308.21429 | 1022.4004 | 1 | 8 | 1 | 6 | 6.5536586 | 0.98901346 | 1 | 308.21429 | 995.79959 | 1 | 8 | 2 | 5 | 8.4197074 | 0.79538531 | 1 | 304.32466 | 986.70225 | 1 | 7 | 3 | 1 | 9.3050333 | 0.24252898 | 1 | 223.46779 | 930.1337 | 2 | 5 | 2 | 5 | 0.25798349 | 0.90094249 | 1 | 223.46779 | 958.41797 | 2 | 6 | 4 | 4 | 0.46386579 | 0.76491303 | 1 | 223.46779 | 986.70225 | 2 | 7 | 6 | 5 | 0.66974818 | 0.83108982 | 1 | 251.71663 | 930.1337 | 3 | 5 | 2 | 4 | 0.39768931 | 0.69531797 | 1 | 251.71663 | 958.41797 | 3 | 6 | 4 | 3 | 0.60357164 | 0.5592885 | 1 | 251.71663 | 986.70225 | 3 | 7 | 6 | 4 | 0.80945403 | 0.62546523 | 1 | 279.96545 | 930.1337 | 4 | 5 | 2 | 1 | 0.18813062 | 0.4896936 | 1 | 279.96545 | 958.41797 | 4 | 6 | 4 | 2 | 0.394013 | 0.35366411 | 1 | 279.96545 | 986.70225 | 4 | 7 | 6 | 3 | 0.59989546 | 0.41984079 | 1 | 308.21429 | 930.1337 | 5 | 8 | 0 | 0 | 0.28406909 | 0.31740058 | 1 | 308.21429 | 958.41797 | 6 | 8 | 1 | 2 | 0.14803958 | 0.52328296 | 1 | 308.21429 | 986.70225 | 7 | 8 | 0 | 4 | 0.21421619 | 0.72916542 | 1" />
    <inkscape:path-effect
       effect="envelope"
       id="path-effect6339"
       is_visible="true"
       yy="true"
       xx="false"
       bendpath1="m 176.36168,873.06582 185.159,0.21156"
       bendpath2="m 347.2399,875.49884 0,166.17006"
       bendpath3="m 131.93257,1040.1879 274.7577,-0.2115"
       bendpath4="m 191.17138,875.49884 0,166.17006"
       bendpath1-nodetypes="cc"
       bendpath3-nodetypes="cc" />
    <inkscape:path-effect
       effect="envelope"
       id="path-effect6139"
       is_visible="true"
       yy="true"
       xx="false"
       bendpath1="m -89.473622,713.99598 134.70837,0"
       bendpath2="m 24.968098,713.99598 0,97.42194"
       bendpath3="m -122.18471,811.41792 201.908338,0"
       bendpath4="m -68.851402,713.99598 0,97.42194"
       bendpath1-nodetypes="cc"
       bendpath3-nodetypes="cc" />
    <inkscape:path-effect
       effect="skeletal"
       id="path-effect5847"
       is_visible="true"
       pattern="M 0,0 1,0"
       copytype="repeated"
       prop_scale="1"
       scale_y_rel="false"
       spacing="0"
       normal_offset="0"
       tang_offset="0"
       prop_units="false"
       vertical_pattern="false"
       fuse_tolerance="0" />
  </defs>
  <sodipodi:namedview
     id="base"
     pagecolor="#ffffff"
     bordercolor="#666666"
     borderopacity="1.0"
     inkscape:pageopacity="0.0"
     inkscape:pageshadow="2"
     inkscape:zoom="0.7"
     inkscape:cx="370.34366"
     inkscape:cy="393.68839"
     inkscape:document-units="px"
     inkscape:current-layer="layer1"
     showgrid="false"
     inkscape:window-width="1600"
     inkscape:window-height="824"
     inkscape:window-x="0"
     inkscape:window-y="24"
     inkscape:window-maximized="1" />
  <metadata
     id="metadata3202">
    <rdf:RDF>
      <cc:Work
         rdf:about="">
        <dc:format>image/svg+xml</dc:format>
        <dc:type
           rdf:resource="http://purl.org/dc/dcmitype/StillImage" />
        <dc:title />
      </cc:Work>
    </rdf:RDF>
  </metadata>
  <g
     inkscape:label="Layer 1"
     inkscape:groupmode="layer"
     id="layer1">
    <path
       style="fill:#000000;fill-opacity:1;fill-rule:nonzero;stroke:none;stroke-width:1.10497236000000010;stroke-miterlimit:4;stroke-opacity:1;stroke-dasharray:none"
       d="m 288.51063,495.48132 c -0.6527,0.0288 -1.5325,0.12333 -2.6563,0.25 -5.7669,0.65001 -13.164,4.9594 -14.9375,8.71875 -4.9124,10.41319 -11.4375,25.51458 -11.4375,26.4375 0,0.61261 -2.4926,6.64964 -5.5312,13.4375 -3.0387,6.78786 -5.5313,12.82993 -5.5313,13.40625 0,0.57632 -2.1908,6.069 -4.875,12.21875 -2.6842,6.14976 -7.4279,17.40331 -10.5625,25 -3.1346,7.59668 -7.9435,19.02504 -10.6875,25.40625 -7.6254,17.73331 -8.7362,22.88269 -6.9687,32.25 2.0596,10.91596 8.6086,18.55866 20.1875,23.59375 2.9476,1.2818 22.7218,1.5272 118.4375,1.5625 l 114.9375,0.0625 6.7187,-3.1875 c 11.5972,-5.48644 18.3584,-16.12293 18.375,-28.875 0.01,-6.12299 -0.6573,-8.59041 -4.5312,-16.8125 -2.4993,-5.30453 -4.5625,-10.09975 -4.5625,-10.65625 0,-0.55648 -2.4926,-6.62604 -5.5313,-13.5 -3.0387,-6.87396 -5.5,-12.8785 -5.5,-13.34375 0,-0.46524 -1.204,-3.47888 -2.6562,-6.6875 -1.4523,-3.20862 -3.72,-8.56371 -5.0625,-11.90625 -1.3426,-3.34254 -4.8343,-11.7923 -7.75,-18.78125 -2.9158,-6.98895 -7.6512,-18.44855 -10.5,-25.4375 -9.1543,-22.45771 -11.5628,-26.65847 -17.2813,-30.15625 -3.6235,-2.21635 -6.2361,-3.03007 -8.9687,-2.78125 l -3.8438,0.34375 4.625,12.71875 c 7.1762,19.6465 7.3497,20.212 6.0625,21.5 -1.2776,1.27834 -135.0994,2.32767 -143.375,1.125 -2.694,-0.39152 -5.0473,-1.40845 -5.4062,-2.34375 -0.3489,-0.90899 0.6025,-4.96898 2.0937,-9.03125 1.4912,-4.06228 3.7442,-10.35359 5,-14 1.2559,-3.64641 2.6534,-7.5962 3.125,-8.75 0.5878,-1.43789 0.5517,-1.86775 -1.4062,-1.78125 z m 141.2187,38.21875 c 1.0112,-0.15988 1.5434,0.71163 2.6563,3.375 0.9346,2.23703 2.5292,6.6242 3.5312,9.71875 1.002,3.09456 4.1432,12.0682 6.9688,19.96875 5.5462,15.50776 9.4471,26.5293 14.75,41.71875 3.2133,9.20434 3.5245,9.6875 6.625,9.6875 18.6006,0 32.1416,22.57219 23.6875,39.5 -3.1585,6.32413 -10.5794,12.86344 -17.125,15.09375 -4.5222,1.54085 -17.9069,1.72445 -116.7813,1.65625 -124.0511,-0.0855 -117.5693,0.30051 -126.7187,-7.59375 -4.1889,-3.61414 -5.5607,-5.73948 -7.5938,-12.0625 -2.158,-6.71139 -2.3106,-8.42972 -1.25,-13.375 1.6307,-7.60388 3.968,-11.82252 9.2188,-16.71875 4.4613,-4.16017 6.4276,-4.97788 15.0937,-6.3125 l 4.875,-0.75 2.7813,-8.28125 c 1.5409,-4.55801 4.7685,-13.52503 7.1562,-19.90625 2.3877,-6.38121 4.9856,-13.90958 5.7813,-16.75 0.7956,-2.84043 3.4105,-10.54554 5.8125,-17.125 2.4019,-6.57947 4.9574,-13.97531 5.6875,-16.40625 l 1.3437,-4.40625 75.0625,0.3125 c 51.1637,0.21337 75.7323,-0.0482 77.2188,-0.84375 0.4759,-0.25473 0.8816,-0.44671 1.2187,-0.5 z m -30.5,11.03125 c -11.7256,-0.084 -21.5312,7.23887 -21.5312,17.0625 0,7.18766 5.9706,13.96628 15.0937,17.15625 5.6284,1.96803 5.6961,2.03644 6.9063,8.0625 1.9201,9.56097 2.4363,9.03125 -9.0313,9.03125 l -10.2187,0 -5.4375,-4.46875 c -7.9151,-6.54058 -11.4089,-7.6875 -23.8125,-7.6875 -12.5459,0 -16.7292,1.39608 -23.6563,7.78125 l -4.7187,4.34375 -20.3438,0.28125 -20.3437,0.3125 -0.875,4.40625 c -0.4808,2.43094 -1.7115,8.13565 -2.75,12.65625 l -1.9063,8.21875 -5.5312,2.125 c -3.0387,1.16477 -6.8898,2.60047 -8.5625,3.21875 -4.6426,1.71592 -12.5993,9.94737 -13.4688,13.90625 -1.5149,6.89745 5.5018,13.43619 17.5938,16.375 15.8169,3.84414 38.4976,-1.04141 47.0312,-10.125 2.0209,-2.15111 2.5938,-3.99679 2.5938,-8.4375 0,-5.14996 -0.3791,-6.02195 -3.9688,-9.125 -2.1795,-1.88404 -6.5588,-4.33247 -9.7187,-5.46875 l -5.7188,-2.09375 0.7188,-5.09375 c 1.3399,-9.50962 0.5181,-8.96875 13.1562,-8.96875 10.7822,0 11.4831,0.1433 14.0313,2.875 1.4733,1.5795 5.1488,4.20138 8.1875,5.8125 5.0527,2.67898 6.6286,2.9375 18.25,2.9375 11.2508,0 13.2915,-0.32902 17.9062,-2.6875 2.8666,-1.46508 6.5656,-4.05571 8.2188,-5.78125 l 3,-3.15625 21.1875,0 21.1875,0 -0.9063,-5.25 c -0.4855,-2.88674 -1.8781,-8.71654 -3.125,-12.96875 -1.2469,-4.25221 -2.2812,-8.00297 -2.2812,-8.34375 0,-0.34078 1.9899,-1.4964 4.4062,-2.5625 17.6865,-7.80324 7.2161,-29.32667 -16.4375,-33.8125 -1.7308,-0.32824 -3.4499,-0.51925 -5.125,-0.53125 z m 1.6563,7.40625 c 0.6463,-0.0386 1.2515,-0.0285 1.8125,0.0625 12.0485,1.95521 19.1859,11.3463 13.875,18.25 -1.5995,2.07916 -3.2287,2.63048 -8.5313,2.9375 -8.0333,0.46512 -11.1945,-0.12972 -15.0937,-2.90625 -3.2175,-2.29105 -4.931,-7.89004 -3.6563,-11.90625 0.9324,-2.93755 7.0692,-6.16748 11.5938,-6.4375 z m -49.7188,38.4375 c 6.3443,-0.025 12.2331,2.55465 15.4375,7.25 2.5008,3.6643 2.5681,4.19256 1.0625,6.875 -0.8958,1.59602 -3.2944,4.02517 -5.3437,5.40625 -7.0979,4.78324 -23.631,2.50345 -26.4375,-3.65625 -2.7948,-6.13387 -0.3616,-11.38581 6.5625,-14.15625 2.8552,-1.14243 5.8349,-1.7074 8.7187,-1.71875 z m -66.0312,39.15625 c 5.1873,0.0162 10.2567,0.70499 12.2812,2.03125 7.3708,4.82867 6.4534,11.95981 -2.0937,16.09375 -8.2839,4.00661 -18.2527,4.30304 -25.625,0.78125 -5.3687,-2.5646 -5.8125,-3.03871 -5.8125,-6.625 0,-4.17931 2.4608,-7.22535 8.3125,-10.34375 2.4624,-1.31226 7.7501,-1.9537 12.9375,-1.9375 z"
       id="path3170"
       inkscape:connector-curvature="0" />
    <path
       style="fill:#000000;fill-opacity:1;fill-rule:nonzero;stroke:none"
       d="m 194.9392,281.90989 c -0.6527,0.0288 -1.5325,0.12333 -2.6563,0.25 -5.7669,0.65001 -13.164,4.9594 -14.9375,8.71875 -4.9124,10.41319 -11.4375,25.51458 -11.4375,26.4375 0,0.61261 -2.4926,6.64964 -5.5312,13.4375 -3.0387,6.78786 -5.5313,12.82993 -5.5313,13.40625 0,0.57632 -2.1908,6.069 -4.875,12.21875 -2.6842,6.14976 -7.4279,17.40331 -10.5625,25 -3.1346,7.59667 -7.9435,19.02503 -10.6875,25.40624 -7.6254,17.73331 -8.7362,22.88269 -6.9687,32.25 2.0596,10.91596 8.6086,18.55866 20.1875,23.59375 2.9476,1.2818 22.7218,1.5272 118.4375,1.5625 l 114.9375,0.0625 6.7187,-3.1875 c 11.5972,-5.48644 18.3584,-16.12293 18.375,-28.875 0.01,-6.12299 -0.6573,-8.59041 -4.5312,-16.8125 -2.4993,-5.30453 -4.5625,-10.09975 -4.5625,-10.65625 0,-0.55648 -2.4926,-6.62604 -5.5313,-13.5 -3.0387,-6.87396 -5.5,-12.87849 -5.5,-13.34374 0,-0.46524 -1.204,-3.47888 -2.6562,-6.6875 -1.4523,-3.20862 -3.72,-8.56371 -5.0625,-11.90625 -1.3426,-3.34254 -4.8343,-11.7923 -7.75,-18.78125 -2.9158,-6.98895 -7.6512,-18.44855 -10.5,-25.4375 -9.1543,-22.45771 -11.5628,-26.65847 -17.2813,-30.15625 -3.6235,-2.21635 -6.2361,-3.03007 -8.9687,-2.78125 l -3.8438,0.34375 4.625,12.71875 c 7.1762,19.6465 7.3497,20.212 6.0625,21.5 -1.2776,1.27834 -135.0994,2.32767 -143.375,1.125 -2.694,-0.39152 -5.0473,-1.40845 -5.4062,-2.34375 -0.3489,-0.90899 0.6025,-4.96898 2.0937,-9.03125 1.4912,-4.06228 3.7442,-10.35359 5,-14 1.2559,-3.64641 2.6534,-7.5962 3.125,-8.75 0.5878,-1.43789 0.5517,-1.86775 -1.4062,-1.78125 z m 141.2187,38.21875 c 1.0112,-0.15988 1.5434,0.71163 2.6563,3.375 0.9346,2.23703 2.5292,6.6242 3.5312,9.71875 1.002,3.09456 4.1432,12.0682 6.9688,19.96875 5.5462,15.50776 9.4471,26.5293 14.75,41.71874 3.2133,9.20434 3.5245,9.6875 6.625,9.6875 18.6006,0 32.1416,22.57219 23.6875,39.5 -3.1585,6.32413 -10.5794,12.86344 -17.125,15.09375 -4.5222,1.54085 -17.9069,1.72445 -116.7813,1.65625 -124.0511,-0.0855 -117.5693,0.30051 -126.7187,-7.59375 -4.1889,-3.61414 -5.5607,-5.73948 -7.5938,-12.0625 -2.158,-6.71139 -2.3106,-8.42972 -1.25,-13.375 1.6307,-7.60388 3.968,-11.82252 9.2188,-16.71875 4.4613,-4.16017 6.4276,-4.97788 15.0937,-6.3125 l 4.875,-0.75 2.7813,-8.28125 c 1.5409,-4.55801 4.7685,-13.52503 7.1562,-19.90624 2.3877,-6.38121 4.9856,-13.90958 5.7813,-16.75 0.7956,-2.84043 3.4105,-10.54554 5.8125,-17.125 2.4019,-6.57947 4.9574,-13.97531 5.6875,-16.40625 l 1.3437,-4.40625 75.0625,0.3125 c 51.1637,0.21337 75.7323,-0.0482 77.2188,-0.84375 0.4759,-0.25473 0.8816,-0.44671 1.2187,-0.5 z m -30.5,11.03125 c -11.7256,-0.084 -21.5312,7.23887 -21.5312,17.0625 0,7.18766 5.9706,13.96628 15.0937,17.15625 5.6284,1.96803 5.6961,2.03644 6.9063,8.0625 1.9201,9.56096 2.4363,9.03124 -9.0313,9.03124 l -10.2187,0 -5.4375,-4.46874 c -7.9151,-6.54058 -11.4089,-7.6875 -23.8125,-7.6875 -12.5459,0 -16.7292,1.39608 -23.6563,7.78125 l -4.7187,4.34374 -20.3438,0.28125 -20.3437,0.3125 -0.875,4.40625 c -0.4808,2.43094 -1.7115,8.13565 -2.75,12.65625 l -1.9063,8.21875 -5.5312,2.125 c -3.0387,1.16477 -6.8898,2.60047 -8.5625,3.21875 -4.6426,1.71592 -12.5993,9.94737 -13.4688,13.90625 -1.5149,6.89745 5.5018,13.43619 17.5938,16.375 15.8169,3.84414 38.4976,-1.04141 47.0312,-10.125 2.0209,-2.15111 2.5938,-3.99679 2.5938,-8.4375 0,-5.14996 -0.3791,-6.02195 -3.9688,-9.125 -2.1795,-1.88404 -6.5588,-4.33247 -9.7187,-5.46875 l -5.7188,-2.09375 0.7188,-5.09375 c 1.3399,-9.50962 0.5181,-8.96875 13.1562,-8.96875 10.7822,0 11.4831,0.1433 14.0313,2.875 1.4733,1.5795 5.1488,4.20138 8.1875,5.8125 5.0527,2.67898 6.6286,2.9375 18.25,2.9375 11.2508,0 13.2915,-0.32902 17.9062,-2.6875 2.8666,-1.46508 6.5656,-4.05571 8.2188,-5.78125 l 3,-3.15625 21.1875,0 21.1875,0 -0.9063,-5.25 c -0.4855,-2.88674 -1.8781,-8.71653 -3.125,-12.96874 -1.2469,-4.25221 -2.2812,-8.00297 -2.2812,-8.34375 0,-0.34078 1.9899,-1.4964 4.4062,-2.5625 17.6865,-7.80324 7.2161,-29.32667 -16.4375,-33.8125 -1.7308,-0.32824 -3.4499,-0.51925 -5.125,-0.53125 z m 1.6563,7.40625 c 0.6463,-0.0386 1.2515,-0.0285 1.8125,0.0625 12.0485,1.95521 19.1859,11.3463 13.875,18.25 -1.5995,2.07916 -3.2287,2.63048 -8.5313,2.9375 -8.0333,0.46512 -11.1945,-0.12972 -15.0937,-2.90625 -3.2175,-2.29105 -4.931,-7.89004 -3.6563,-11.90625 0.9324,-2.93755 7.0692,-6.16748 11.5938,-6.4375 z m -49.7188,38.4375 c 6.3443,-0.025 12.2331,2.55465 15.4375,7.24999 2.5008,3.6643 2.5681,4.19256 1.0625,6.875 -0.8958,1.59602 -3.2944,4.02517 -5.3437,5.40625 -7.0979,4.78324 -23.631,2.50345 -26.4375,-3.65625 -2.7948,-6.13387 -0.3616,-11.3858 6.5625,-14.15624 2.8552,-1.14243 5.8349,-1.7074 8.7187,-1.71875 z m -66.0312,39.15624 c 5.1873,0.0162 10.2567,0.70499 12.2812,2.03125 7.3708,4.82867 6.4534,11.95981 -2.0937,16.09375 -8.2839,4.00661 -18.2527,4.30304 -25.625,0.78125 -5.3687,-2.5646 -5.8125,-3.03871 -5.8125,-6.625 0,-4.17931 2.4608,-7.22535 8.3125,-10.34375 2.4624,-1.31226 7.7501,-1.9537 12.9375,-1.9375 z"
       id="path3170-1"
       inkscape:connector-curvature="0" />
    <path
       style="fill:#000000;fill-opacity:1;stroke:none"
       d="m 225.85687,881.92085 c -11.39568,-2.2173 -20.82878,-13.4025 -22.1571,-26.2727 -1.10004,-10.6584 -4.38007,-1.8387 42.53197,-114.3649 6.51636,-15.63055 13.38291,-30.2434 15.259,-32.47302 2.99685,-3.56155 13.89659,-8.17563 15.50756,-6.56466 0.32344,0.32344 -1.69978,6.90837 -4.49605,14.63317 -7.07902,19.5561 -7.0162,19.7232 7.90529,21.02999 19.42481,1.70119 135.81106,-0.36765 136.60176,-2.42818 0.36021,-0.93872 -1.91655,-8.70195 -5.05946,-17.25163 -3.14292,-8.54968 -5.4645,-15.79477 -5.15907,-16.1002 1.20014,-1.20014 9.39438,1.49804 12.88274,4.24198 4.99286,3.92738 7.82821,9.85601 27.97777,58.50044 9.56262,23.08578 20.89252,50.33131 25.17756,60.54561 6.24398,14.8838 7.79827,20.1581 7.8277,26.5626 0.0567,12.3428 -5.26964,21.0044 -17.39186,28.282 -4.97471,2.9867 -5.57443,3.001 -118.57143,2.8429 -62.46428,-0.087 -115.94066,-0.6199 -118.83638,-1.1834 l 0,0 z m 235.26495,-4.2125 c 9.68076,-4.482 17.87095,-15.8368 17.84918,-24.7457 -0.0154,-6.3033 -3.04986,-14.1036 -7.42489,-19.0865 -5.0761,-5.7814 -9.66121,-8.3954 -17.07976,-9.7374 -5.957,-1.0776 -3.61653,4.1302 -23.82274,-53.00775 -6.35156,-17.96058 -11.84444,-31.36735 -12.81807,-31.28572 -0.93704,0.0786 -35.95523,0.23929 -77.81819,0.35715 l -76.11448,0.21428 -14.22104,41.27633 -14.22104,41.27631 -7.53818,1.687 c -12.0572,2.6983 -19.51241,10.7301 -21.90125,23.5951 -2.27456,12.2497 7.6254,27.9234 19.29661,30.5506 3.22583,0.7261 55.73404,1.3628 117.95671,1.4303 106.28992,0.1153 112.4411,-0.016 117.85714,-2.524 l 0,0 z"
       id="path4042"
       inkscape:connector-curvature="0" />
    <flowRoot
       xml:space="preserve"
       id="flowRoot4044"
       style="font-size:36px;font-style:normal;font-weight:normal;line-height:125%;letter-spacing:0px;word-spacing:0px;fill:#000000;fill-opacity:1;stroke:none;font-family:Sans"><flowRegion
         id="flowRegion4046"><rect
           id="rect4048"
           width="208.5965"
           height="140.91628"
           x="267.18533"
           y="758.40778" /></flowRegion><flowPara
         id="flowPara4050" /></flowRoot>    <path
       style="fill:#000000;fill-opacity:1;fill-rule:nonzero;stroke:none"
       d="m 41.86337,903.0592 c -1.41475,-0.0498 -2.63931,0.69311 -4.24405,2.29791 -2.71329,2.71326 -3.05417,5.40978 -1.07861,8.23025 2.215,3.16242 4.86563,3.67587 9.07434,1.75859 3.1806,-1.44893 5.09598,-1.65426 13.81091,-1.45377 l 10.12955,0.23448 1.26619,2.3448 c 1.18275,2.1605 1.16602,2.40591 -0.32828,3.5172 -0.92232,0.68586 -3.46746,1.19585 -5.95579,1.19585 -5.59196,0 -6.94062,1.29688 -6.94062,6.68268 l 0,4.10341 -14.09228,0 -14.11569,0 0,11.18469 0,11.1847 15.96812,0.0235 15.96805,0.0234 2.06343,3.39996 c 2.41173,3.96388 5.80137,5.67441 11.25504,5.67441 4.98891,0 8.65543,-1.78672 11.91158,-5.83855 2.60953,-3.24718 2.66295,-3.28272 8.44129,-3.28272 3.20056,0 6.55261,0.40729 7.45646,0.89102 2.39462,1.28158 3.2984,4.30764 2.18071,7.26888 -0.73503,1.94722 -0.69925,2.78173 0.16409,3.82203 0.94588,1.13968 3.0697,1.29644 14.79573,1.10205 11.96553,-0.19836 13.7866,-0.39825 14.58466,-1.66481 0.69068,-1.09629 0.62631,-1.91513 -0.30487,-3.32961 -0.80413,-1.22144 -1.38879,-4.89096 -1.66477,-10.62195 -0.37223,-7.72896 -0.68851,-9.18263 -2.64966,-12.14607 -1.4495,-2.19025 -3.74508,-4.11661 -6.58885,-5.53372 -4.1889,-2.0874 -4.91657,-2.15721 -18.28944,-2.15721 l -13.92811,0 0,-4.40824 c 0,-5.31201 -0.93304,-6.37784 -5.51033,-6.37784 -7.03807,0 -9.52611,-2.3855 -6.09648,-5.81512 1.45663,-1.45664 2.77355,-1.64136 10.76268,-1.64136 7.57419,0 9.62389,0.28708 12.35706,1.71171 3.06535,1.59773 3.45867,1.61716 5.8151,0.39862 4.41265,-2.28187 5.42216,-6.18079 2.55588,-9.82471 -2.41136,-3.06552 -6.21354,-3.68517 -9.16821,-1.50067 -2.0572,1.52093 -3.50288,1.73965 -11.30194,1.73514 -7.53338,-0.005 -9.34814,-0.25426 -11.44262,-1.64136 -3.1193,-2.06585 -4.23513,-2.06585 -8.08953,0 -2.57898,1.38223 -4.68143,1.64136 -12.61503,1.64136 -8.05238,0 -9.91974,-0.24106 -12.21645,-1.64136 -1.60976,-0.98146 -2.83889,-1.50879 -3.93926,-1.54757 z m 76.67497,68.86679 c -0.36436,0.0404 -0.68018,0.44823 -0.93792,1.21929 -0.27942,0.83594 -1.94937,4.95273 -3.70478,9.14472 -1.75541,4.19201 -3.82409,10.05297 -4.61923,13.03707 -1.25028,4.69213 -1.30438,5.86043 -0.35175,8.55853 1.3846,3.9217 3.11584,5.9408 6.28407,7.3393 1.36801,0.6038 3.02731,1.1076 3.68137,1.1255 2.35816,0.064 8.09155,-3.3394 9.23851,-5.4869 2.01398,-3.7709 1.36952,-11.50513 -1.54757,-18.52393 -1.42143,-3.42002 -3.50707,-8.45768 -4.6427,-11.18467 -1.51088,-3.62769 -2.59849,-5.31769 -3.4,-5.22891 z"
       id="path4156"
       inkscape:connector-curvature="0" />
    <path
       style="fill:none;stroke:#000000;stroke-width:4;stroke-miterlimit:4;stroke-opacity:1;stroke-dasharray:none"
       d="m -125.25467,810.43555 c -1.41475,-0.0498 -2.63931,0.69311 -4.24405,2.29791 -2.71329,2.71326 -3.05417,5.40978 -1.07861,8.23025 2.215,3.16242 4.86563,3.67587 9.07434,1.75859 3.1806,-1.44893 5.09598,-1.65426 13.81091,-1.45377 l 10.129551,0.23448 1.26619,2.3448 c 1.18275,2.1605 1.16602,2.40591 -0.32828,3.5172 -0.92232,0.68586 -3.467461,1.19585 -5.955791,1.19585 -5.59196,0 -6.94062,1.29688 -6.94062,6.68268 l 0,4.10341 -14.09228,0 -14.11569,0 0,11.18469 0,11.1847 15.96812,0.0235 15.96805,0.0234 2.06343,3.39996 c 2.41173,3.96388 5.801371,5.67441 11.255041,5.67441 4.98891,0 8.65543,-1.78672 11.91158,-5.83855 2.60953,-3.24718 2.66295,-3.28272 8.44129,-3.28272 3.20056,0 6.55261,0.40729 7.45646,0.89102 2.39462,1.28158 3.2984,4.30764 2.18071,7.26888 -0.73503,1.94722 -0.69925,2.78173 0.16409,3.82203 0.94588,1.13968 3.0697,1.29644 14.79573,1.10205 11.96553,-0.19836 13.7866,-0.39825 14.58466,-1.66481 0.69068,-1.09629 0.62631,-1.91513 -0.30487,-3.32961 -0.80413,-1.22144 -1.38879,-4.89096 -1.66477,-10.62195 -0.37223,-7.72896 -0.68851,-9.18263 -2.64966,-12.14607 -1.4495,-2.19025 -3.74508,-4.11661 -6.58885,-5.53372 -4.1889,-2.0874 -4.91657,-2.15721 -18.28944,-2.15721 l -13.92811,0 0,-4.40824 c 0,-5.31201 -0.93304,-6.37784 -5.51033,-6.37784 -7.03807,0 -9.52611,-2.3855 -6.09648,-5.81512 1.45663,-1.45664 2.77355,-1.64136 10.76268,-1.64136 7.57419,0 9.62389,0.28708 12.35706,1.71171 3.06535,1.59773 3.45867,1.61716 5.8151,0.39862 4.41265,-2.28187 5.42216,-6.18079 2.55588,-9.82471 -2.41136,-3.06552 -6.21354,-3.68517 -9.16821,-1.50067 -2.0572,1.52093 -3.50288,1.73965 -11.30194,1.73514 -7.53338,-0.005 -9.34814,-0.25426 -11.44262,-1.64136 -3.1193,-2.06585 -4.23513,-2.06585 -8.08953,0 -2.57898,1.38223 -4.681431,1.64136 -12.615031,1.64136 -8.05238,0 -9.91974,-0.24106 -12.21645,-1.64136 -1.60976,-0.98146 -2.83889,-1.50879 -3.93926,-1.54757 z m 76.674971,68.86679 c -0.36436,0.0404 -0.68018,0.44823 -0.93792,1.21929 -0.27942,0.83594 -1.94937,4.95273 -3.70478,9.14472 -1.75541,4.19201 -3.82409,10.05294 -4.61923,13.03704 -1.25028,4.6921 -1.30438,5.8604 -0.35175,8.5585 1.3846,3.9217 3.11584,5.9408 6.28407,7.3393 1.36801,0.6038 3.02731,1.1076 3.68137,1.1255 2.35816,0.064 8.09155,-3.3394 9.23851,-5.4869 2.01398,-3.7709 1.36952,-11.5051 -1.54757,-18.52386 -1.42143,-3.42003 -3.50707,-8.45769 -4.6427,-11.18468 -1.51088,-3.62769 -2.59849,-5.31769 -3.4,-5.22891 z"
       id="path4156-6"
       inkscape:connector-curvature="0" />
    <path
       style="fill:#000000;fill-opacity:1;stroke:none"
       d="m 630.21771,945.4137 c 0,0 -3.48804,9.63036 0,13.125 3.48804,3.49464 16.5,0.0312 16.5,0.0312 l 16.46875,0 1.125,1.875 c 3.00898,5.05448 6.74589,7.0655 13.25,7.0625 3.00183,-10e-4 3.49581,-0.0864 5.46875,-0.78125 2.9568,-1.0414 4.61581,-2.23014 7.5625,-5.375 l 2.5,-2.6875 3.8125,-0.0625 c 6.9181,-0.14836 8.77349,0.5049 9.03125,3.1875 0.0728,0.7577 -0.0494,1.72991 -0.28125,2.46875 -0.8323,2.65201 -0.7049,3.97431 0.5,5.40625 0.96269,1.1441 1.92003,1.54445 4.34375,1.78125 2.65808,0.25969 18.49245,0.06 22.5,-0.28125 3.53581,-0.30105 4.90187,-0.85611 5.75,-2.375 0.78014,-1.39713 0.7376,-2.82251 -0.15625,-4.875 -0.91288,-2.09618 -1.16992,-3.78966 -1.65625,-10.78125 -0.43132,-6.20081 -0.83483,-8.46052 -1.8125,-10.34375 -1.94869,-3.75366 -4.85527,-6.42592 -9.28125,-8.5 -3.79412,-1.77798 -3.92726,-1.79658 -17.75,-1.9375 l -12.375,-0.125 -0.1875,-2.9375 c -0.20359,-3.53321 -0.64441,-5.05447 -1.8125,-6.15625 -1.21551,-1.14649 -2.27936,-1.4357 -6.0625,-1.6875 -2.93555,-0.19538 -5.15625,-0.69857 -5.15625,-1.15625 0,-0.41194 0.93357,-1.46501 1.625,-1.84375 0.68912,-0.37744 1.69199,-0.41025 8.46875,-0.40625 8.54006,0.005 8.62874,0.009 12.625,1.78125 2.8638,1.26938 3.92001,1.24657 6.4375,-0.0312 4.71816,-2.39481 6.49631,-6.68878 4.46875,-10.78125 -2.00317,-4.04325 -5.98132,-6.199 -9.71875,-5.21875 -0.864,0.22662 -2.27488,0.83733 -3.125,1.34375 -2.01136,1.19816 -3.38615,1.3749 -10.1875,1.375 -7.14351,9e-5 -8.23481,-0.14664 -11.3125,-1.75 -2.07924,-1.08322 -2.67106,-1.28125 -3.84375,-1.28125 -1.48654,0 -2.25707,0.22619 -5.46875,1.65625 -2.63457,1.17309 -4.57855,1.383 -11.8125,1.375 -7.45476,-0.008 -8.48555,-0.14765 -11.78125,-1.75 -2.32677,-1.13127 -2.88119,-1.28725 -4.21875,-1.28125 -1.0671,0.005 -1.8389,0.1774 -2.59375,0.5625 -1.5049,0.76774 -4.02886,3.26032 -4.90625,4.84375 -0.63761,1.15062 -0.75,1.5863 -0.75,3.34375 0,2.40506 0.61069,3.82835 2.375,5.71875 1.47185,1.57705 2.45075,2.17895 4.1875,2.5 1.75206,0.32389 3.32789,0.0159 6.5625,-1.21875 3.04597,-1.16267 5.89177,-1.36006 14.78125,-1.125 l 6.9375,0.15625 0.5625,1.03125 c 0.31437,0.55559 0.59175,1.06565 0.59375,1.15625 0.01,0.39692 -1.90116,0.7755 -5.0625,1 -4.06873,0.28894 -5.54046,0.72796 -6.8125,2 -1.27814,1.27814 -1.76754,2.86494 -1.9375,6.125 l -0.15625,2.71875 -14.09375,0 c 0,0 -10.91356,-3.21144 -14.125,0 -3.21144,3.21144 -0.46361,10.29911 -0.46361,10.29911 m 4.36823,2.41552 c 0,0 -2.58957,-6.18598 0.15783,-8.93338 2.7474,-2.7474 13.96875,0 13.96875,0 l 14,0 0.0937,-4.21875 c 0.11201,-4.5807 0.33407,-5.50332 1.46875,-6.03125 0.34598,-0.16097 2.21171,-0.41614 4.15625,-0.5625 3.75185,-0.28239 5.22333,-0.67189 6.78125,-1.75 1.11072,-0.76863 1.6875,-1.71789 1.6875,-2.8125 0,-0.43374 -0.60626,-1.97625 -1.40625,-3.53125 l -1.40625,-2.71875 -8.625,-0.1875 c -11.33201,-0.22535 -13.10047,-0.0526 -17.71875,1.71875 -2.43716,0.93482 -3.93559,0.93142 -5.125,-0.0312 -1.30941,-1.05979 -2.15945,-2.72858 -2,-3.96875 0.24412,-1.89876 2.9309,-4.6875 4.5,-4.6875 l 10e-5,-5e-5 c 0.40867,0 1.72494,0.48809 2.9375,1.09375 3.50215,1.74929 3.89505,1.8125 13.3125,1.8125 9.43744,0 9.96373,-0.086 13.78125,-1.8125 1.35146,-0.6112 2.7004,-1.09175 3.03125,-1.09375 0.33084,-0.002 1.76729,0.55487 3.15625,1.25 3.17758,1.59029 4.45718,1.78825 12.3125,1.78125 8.05145,-0.007 9.03089,-0.18004 12.65625,-2.1875 2.43322,-1.34734 4.8773,-0.63444 6.46875,1.875 0.91484,1.44256 0.99114,3.00024 0.21875,4.25 -0.59205,0.95796 -3.09236,2.625 -3.9375,2.625 -0.31063,0 -1.55552,-0.42936 -2.78125,-0.96875 -3.58991,-1.57974 -4.32432,-1.6875 -13.09375,-1.6875 -9.16224,0 -9.83358,0.11757 -11.71875,1.8125 -3.22319,2.89792 -3.06643,6.36281 0.34375,8.03125 1.43078,0.70002 3.22719,1.02693 7,1.28125 1.20463,0.0812 2.40247,0.31468 2.65625,0.5 0.41473,0.30285 0.46105,0.83649 0.53125,5.28125 l 0.0937,4.9375 11.78125,0 c 14.74905,0.01 17.21641,0.18749 19.84375,1.28125 4.06809,1.69355 6.95787,4.13093 8.5,7.21875 0.70379,1.40921 1.1368,4.46551 1.5,10.28125 0.34947,5.59605 0.80937,8.46452 1.6875,10.34375 0.4686,1.00287 0.61771,1.53854 0.4375,1.71875 -0.14378,0.14378 -1.6834,0.34511 -3.40625,0.46875 -5.72321,0.41072 -19.94935,0.49279 -22.125,0.125 -0.95781,-0.16191 -1.02528,-0.56243 -0.4375,-2.5 0.48394,-1.59629 0.48845,-4.08435 0,-5.46875 -0.88808,-2.51709 -2.62423,-3.87699 -5.59375,-4.40625 -2.31293,-0.41224 -10.12033,-0.49958 -11.46875,-0.125 -1.24781,0.34664 -2.39986,1.31331 -4.5,3.71875 -1.89068,2.16553 -3.84742,3.61159 -5.65625,4.25 -2.99194,1.05598 -7.57143,0.96462 -10.15625,-0.21875 -1.97157,-0.90262 -2.99807,-1.96805 -4.96875,-5.125 l -1.78125,-2.875 -15.5,0 c 0,0 -12.57214,2.92786 -15.5,0 -2.92786,-2.92786 -4.05051,-9.43505 -4.05051,-9.43505 m 91.05056,26.87255 c -0.45186,0.0593 -0.88842,0.29718 -1.34375,0.6875 -0.62856,0.53883 -1.23033,1.69611 -2.625,5.125 -5.68359,13.97345 -8.03125,21.33965 -8.03125,25.06245 0,2.5044 1.799,6.8996 3.6875,9 1.35664,1.509 3.45465,2.8484 5.8125,3.6876 0.94878,0.3377 2.30367,0.615 3.03125,0.625 3.48731,0.025 9.74682,-3.8831 11.09375,-6.9376 1.82049,-4.1285 1.44099,-10.8769 -1,-17.7812 -0.85598,-2.42105 -5.51421,-13.52876 -6.46875,-15.4375 -1.43374,-2.86695 -2.80066,-4.20931 -4.15625,-4.03125 z m 0.5,5.4375 c 0.12842,-0.0384 0.25013,0.22884 0.59375,1 1.11352,2.49896 5.7809,13.91035 6.1875,15.12505 1.80331,5.3868 2.13627,11.663 0.75,14.3437 -0.44839,0.8671 -2.50124,2.443 -4.59375,3.5 -2.01301,1.0168 -3.11021,1.1299 -4.71875,0.5313 -3.16758,-1.1787 -4.71505,-2.6853 -6.03125,-5.8126 -1.28607,-3.0556 -1.12633,-4.7518 1.09375,-11.5624 1.13021,-3.4673 5.65744,-15.2596 6.4375,-16.75005 0.1194,-0.22813 0.2042,-0.35198 0.28125,-0.375 z"
       id="path5697"
       inkscape:connector-curvature="0"
       sodipodi:nodetypes="czccccccccscsssssssscccssscsccscssssscscscssssccccssccczcczcccsssscccccsccssssscsssssssssscccssscssscssssssccczccssscccsssccsccccscsc" />
    <path
       style="fill:none;stroke:#000000;stroke-width:4;stroke-miterlimit:4;stroke-opacity:1;stroke-dasharray:none"
       d="m 534.49078,798.43164 c -1.41475,-0.0498 -2.63931,0.69311 -4.24405,2.29791 -2.71329,2.71326 -3.05417,5.40978 -1.07861,8.23025 2.215,3.16242 4.86563,3.67587 9.07434,1.75859 3.1806,-1.44893 5.09598,-1.65426 13.81091,-1.45377 l 10.12955,0.23448 1.26619,2.3448 c 1.18275,2.1605 1.16602,2.40591 -0.32828,3.5172 -0.92232,0.68586 -3.46746,1.19585 -5.95579,1.19585 -5.59196,0 -6.94062,1.29688 -6.94062,6.68268 l 0,4.10341 -14.09228,0 -14.11569,0 0,11.18469 0,11.1847 15.96812,0.0235 15.96805,0.0234 2.06343,3.39996 c 2.41173,3.96388 5.80137,5.67441 11.25504,5.67441 4.98891,0 8.65543,-1.78672 11.91158,-5.83855 2.60953,-3.24718 2.66295,-3.28272 8.44129,-3.28272 3.20056,0 6.55261,0.40729 7.45646,0.89102 2.39462,1.28158 3.2984,4.30764 2.18071,7.26888 -0.73503,1.94722 -0.69925,2.78173 0.16409,3.82203 0.94588,1.13968 3.0697,1.29644 14.79573,1.10205 11.96553,-0.19836 13.7866,-0.39825 14.58466,-1.66481 0.69068,-1.09629 0.62631,-1.91513 -0.30487,-3.32961 -0.80413,-1.22144 -1.38879,-4.89096 -1.66477,-10.62195 -0.37223,-7.72896 -0.68851,-9.18263 -2.64966,-12.14607 -1.4495,-2.19025 -3.74508,-4.11661 -6.58885,-5.53372 -4.1889,-2.0874 -4.91657,-2.15721 -18.28944,-2.15721 l -13.92811,0 0,-4.40824 c 0,-5.31201 -0.93304,-6.37784 -5.51033,-6.37784 -7.03807,0 -9.52611,-2.3855 -6.09648,-5.81512 1.45663,-1.45664 2.77355,-1.64136 10.76268,-1.64136 7.57419,0 9.62389,0.28708 12.35706,1.71171 3.06535,1.59773 3.45867,1.61716 5.8151,0.39862 4.41265,-2.28187 5.42216,-6.18079 2.55588,-9.82471 -2.41136,-3.06552 -6.21354,-3.68517 -9.16821,-1.50067 -2.0572,1.52093 -3.50288,1.73965 -11.30194,1.73514 -7.53338,-0.005 -9.34814,-0.25426 -11.44262,-1.64136 -3.1193,-2.06585 -4.23513,-2.06585 -8.08953,0 -2.57898,1.38223 -4.68143,1.64136 -12.61503,1.64136 -8.05238,0 -9.91974,-0.24106 -12.21645,-1.64136 -1.60976,-0.98146 -2.83889,-1.50879 -3.93926,-1.54757 z m 76.67497,68.86679 c -0.36436,0.0404 -0.68018,0.44823 -0.93792,1.21929 -0.27942,0.83591 -1.94937,4.95271 -3.70478,9.14471 -1.75541,4.192 -3.82409,10.053 -4.61923,13.0371 -1.25028,4.692 -1.30438,5.8603 -0.35175,8.5584 1.3846,3.9217 3.11584,5.9408 6.28407,7.3393 1.36801,0.6038 3.02731,1.1076 3.68137,1.1255 2.35816,0.064 8.09155,-3.3394 9.23851,-5.4869 2.01398,-3.7709 1.36952,-11.505 -1.54757,-18.5238 -1.42143,-3.42 -3.50707,-8.4577 -4.6427,-11.1847 -1.51088,-3.6277 -2.59849,-5.31768 -3.4,-5.2289 z"
       id="path4156-6-1"
       inkscape:connector-curvature="0" />
    <path
       style="fill:#000000;fill-opacity:1;fill-rule:nonzero;stroke:none"
       id="path5737"
       d="m 568.28004,771.26868 c -0.27443,-0.15663 -0.53165,-0.3322 -0.78572,-0.51911 0,0 1.93805,-2.49177 1.93805,-2.49177 l 0,0 c 5.9e-4,0.0293 0.38214,0.24097 0.41384,0.27007 0,0 -1.56617,2.74081 -1.56617,2.74081 z"
       inkscape:connector-curvature="0" />
    <path
       style="fill:none;stroke:#000000;stroke-width:4;stroke-miterlimit:4;stroke-opacity:1;stroke-dasharray:none"
       d="m 589.49078,580.21737 c -0.33313,-0.0117 -0.65655,0.0268 -0.97023,0.10546 -0.31368,0.0786 -0.61762,0.19732 -0.91178,0.34586 -0.29416,0.14854 -0.57854,0.32693 -0.8531,0.52495 -0.27456,0.19802 -0.5393,0.41567 -0.79418,0.64274 -0.24757,0.22054 -0.48583,0.44996 -0.71476,0.6789 -0.007,0.007 -0.0135,0.0136 -0.0203,0.0203 -0.23531,0.23635 -0.46374,0.48391 -0.67962,0.74215 -0.21587,0.25823 -0.41919,0.52715 -0.60427,0.80622 -0.18509,0.27906 -0.35195,0.56827 -0.4949,0.86709 -0.14295,0.29881 -0.262,0.60724 -0.35148,0.92475 -0.0657,0.2333 -0.11551,0.47149 -0.14706,0.71438 -0.0114,0.0877 -0.0201,0.17538 -0.0262,0.26308 -0.0231,0.33067 -0.009,0.66112 0.036,0.98815 0.0452,0.32702 0.12197,0.65061 0.22484,0.96757 0.10287,0.31696 0.23189,0.62727 0.38172,0.92774 0.14983,0.30046 0.32048,0.59107 0.50661,0.86862 0.0316,0.0471 0.0636,0.0938 0.0961,0.14017 0.15877,0.22669 0.32832,0.44872 0.50828,0.66254 0.21674,0.25753 0.44858,0.50315 0.69489,0.73068 0.2463,0.22752 0.50706,0.43695 0.78165,0.62207 0.27459,0.18513 0.563,0.34595 0.8646,0.47628 0.30049,0.12985 0.61407,0.22943 0.94011,0.29261 0.001,2.4e-4 0.002,4.7e-4 0.004,7e-4 0.32726,0.0632 0.65607,0.0942 0.98507,0.098 0.32899,0.004 0.65817,-0.0195 0.98617,-0.0649 0.32799,-0.0454 0.6548,-0.11301 0.97906,-0.19765 0.32426,-0.0846 0.64596,-0.18634 0.96374,-0.30009 0.31778,-0.11374 0.63163,-0.23952 0.94019,-0.37229 0.14351,-0.0617 0.28588,-0.12502 0.42696,-0.18929 0.16226,-0.0739 0.32566,-0.14531 0.49014,-0.2141 0.30749,-0.1286 0.61873,-0.24809 0.93324,-0.3579 0.31451,-0.10981 0.63228,-0.20994 0.95285,-0.29982 0.32056,-0.0899 0.64391,-0.16952 0.96956,-0.23833 0.32565,-0.0688 0.65361,-0.12682 0.98338,-0.17343 0.16653,-0.0235 0.33352,-0.0442 0.50091,-0.0618 0.1641,-0.0173 0.32829,-0.0332 0.49255,-0.0479 0.33183,-0.0296 0.66397,-0.054 0.99637,-0.0739 0.33241,-0.0199 0.66507,-0.0352 0.99795,-0.0467 0.33288,-0.0115 0.66596,-0.0193 0.9992,-0.0239 0.33323,-0.005 0.66662,-0.006 1.00011,-0.005 0.33349,8e-4 0.66707,0.004 1.0007,0.009 0.33362,0.005 0.66729,0.0113 1.00095,0.0187 0.33365,0.007 0.66729,0.0158 1.00087,0.0244 0.33357,0.009 0.66707,0.0174 1.00045,0.0257 0.16393,0.004 0.32782,0.008 0.49168,0.0118 l 0.50816,0.0118 0.99973,0.0231 0.99973,0.0231 0.99974,0.0231 0.99973,0.0231 0.99973,0.0231 0.99973,0.0231 0.99974,0.0231 0.99973,0.0231 0.99973,0.0231 0.6238,0.0144 0.17867,0.33087 0.47515,0.87991 0.47515,0.8799 0.13722,0.25412 c 0.11384,0.20795 0.24275,0.41679 0.36501,0.62859 0.1719,0.2978 0.33067,0.60144 0.4159,0.91666 0.0534,0.19727 0.0779,0.39907 0.0588,0.6068 -0.0114,0.12421 -0.0458,0.23901 -0.0975,0.34618 -0.13823,0.28641 -0.40023,0.51829 -0.67754,0.72936 -0.1314,0.10002 -0.26624,0.19536 -0.39298,0.28961 -0.14074,0.10466 -0.28945,0.19536 -0.44418,0.27489 -0.29406,0.15113 -0.60985,0.26188 -0.9339,0.35127 -0.32405,0.0894 -0.65637,0.15743 -0.98351,0.22313 -0.01,0.002 -0.0194,0.004 -0.029,0.006 -0.31714,0.0636 -0.6361,0.11778 -0.95637,0.16291 -0.33003,0.0465 -0.66145,0.0834 -0.99367,0.11132 -0.33222,0.0279 -0.66525,0.0467 -0.99851,0.057 -0.20549,0.006 -0.41107,0.009 -0.6166,0.009 -0.1278,0 -0.25671,-1.4e-4 -0.38644,-10e-6 -0.33834,3.3e-4 -0.68219,0.002 -1.02626,0.0134 -0.34408,0.0109 -0.68837,0.0307 -1.02758,0.0665 -0.33921,0.0357 -0.67334,0.0873 -0.9971,0.16189 -0.32375,0.0746 -0.63713,0.17211 -0.93484,0.29968 -0.29771,0.12757 -0.57975,0.28517 -0.84081,0.47985 -0.12292,0.0917 -0.24119,0.19155 -0.35426,0.30039 -0.12708,0.12233 -0.2422,0.25503 -0.3464,0.39591 -0.19693,0.26624 -0.35488,0.56171 -0.48091,0.87171 -0.10248,0.25207 -0.18385,0.51374 -0.24792,0.7771 -0.0147,0.0605 -0.0287,0.12118 -0.0421,0.18196 -0.0713,0.32526 -0.12317,0.65403 -0.16071,0.9849 -0.0375,0.33087 -0.0608,0.66384 -0.0749,0.99749 -0.0141,0.33364 -0.0191,0.66797 -0.0202,1.00156 -1.6e-4,0.0502 -2.3e-4,0.10028 -2.3e-4,0.15039 l 0,0.84967 0,1 0,1 0,1 0,0.25374 -0.74626,0 -1,0 -1,0 -1,0 -1,0 -1,0 -1,0 -1,0 -1,0 -1,0 -1,0 -1,0 -1,0 -1,0 -0.34602,0 -0.65398,0 -1,0 -1,0 -1,0 -1,0 -1,0 -1,0 -1,0 -1,0 -1,0 -1,0 -1,0 -1,0 -1,0 -0.46171,0 0,0.53829 0,1 0,1 0,1 0,1 0,1 0,1 0,1 0,1 0,1 0,1 0,0.6464 0,0.3536 0,1 0,1 0,1 0,1 0,1 0,1 0,1 0,1 0,1 0,1 0,0.8311 0.1689,2.5e-4 1,0.001 1,0.001 1,0.001 0.99999,0.001 1,0.001 1,0.001 1,0.001 1,0.001 1,0.001 1,0.001 1,0.001 1,0.001 0.99999,0.001 1,0.001 1,0.001 0.79924,0.001 0.20076,2.9e-4 1,0.001 1,0.001 1,0.001 1,0.001 1,0.001 1,0.001 0.99999,0.001 1,0.001 1,0.001 1,0.001 1,0.001 1,0.001 1,0.001 1,0.001 1,0.001 0.7673,0.001 0.12073,0.19893 0.51882,0.85488 0.51883,0.85488 0.51882,0.85488 0.38623,0.63639 c 0.0443,0.0728 0.0893,0.1452 0.13489,0.21722 0.17861,0.28183 0.36766,0.55769 0.56693,0.82596 0.19928,0.26828 0.40879,0.52897 0.62832,0.78047 0.21954,0.25149 0.44911,0.49378 0.6885,0.72525 0.2394,0.23147 0.48861,0.45212 0.74746,0.66034 0.25884,0.20821 0.5273,0.40398 0.80519,0.5857 0.27788,0.18172 0.56519,0.34938 0.86171,0.50137 0.0179,0.009 0.0358,0.0183 0.0538,0.0274 0.27967,0.14103 0.5648,0.26859 0.85453,0.38375 0.30834,0.12255 0.6219,0.23107 0.93962,0.32682 0.31773,0.0958 0.63962,0.17874 0.96464,0.25027 0.32503,0.0715 0.65318,0.13156 0.98342,0.18143 0.33023,0.0499 0.66256,0.0895 0.99593,0.12031 0.33337,0.0308 0.66778,0.0527 1.0022,0.0669 0.33442,0.0143 0.66885,0.0209 1.00224,0.0212 0.009,10e-6 0.0171,10e-6 0.0257,10e-6 0.32478,0 0.64875,-0.0113 0.97144,-0.0335 0.33118,-0.0228 0.66101,-0.0571 0.98894,-0.10256 0.32793,-0.0455 0.65397,-0.1021 0.97758,-0.16954 0.32361,-0.0675 0.64479,-0.1457 0.96302,-0.23441 0.31822,-0.0887 0.63348,-0.18788 0.94526,-0.29715 0.31177,-0.10927 0.62005,-0.22864 0.9243,-0.35776 0.30426,-0.12912 0.60448,-0.26799 0.90015,-0.41625 0.29567,-0.14826 0.58679,-0.30591 0.87281,-0.47261 0.28602,-0.16669 0.56695,-0.34242 0.84226,-0.52684 0.2753,-0.18442 0.54499,-0.37752 0.80851,-0.57895 0.26353,-0.20143 0.5209,-0.4112 0.77158,-0.62894 0.25068,-0.21773 0.49467,-0.44345 0.73144,-0.67679 0.23676,-0.23333 0.46631,-0.47429 0.6881,-0.72252 0.18064,-0.20217 0.35613,-0.40915 0.52619,-0.62077 0.0387,-0.0482 0.0774,-0.0967 0.11606,-0.14547 0.20826,-0.26269 0.41566,-0.53198 0.62892,-0.79588 0.21325,-0.26391 0.43237,-0.52243 0.66407,-0.7636 0.2317,-0.24116 0.47598,-0.46497 0.73955,-0.65944 0.26358,-0.19447 0.54645,-0.3596 0.85534,-0.48342 0.009,-0.004 0.0189,-0.008 0.0284,-0.0112 0.30099,-0.11758 0.60853,-0.20674 0.92097,-0.27386 0.3223,-0.0692 0.64983,-0.11505 0.9808,-0.14442 0.33097,-0.0294 0.66539,-0.0423 1.00147,-0.0458 0.33607,-0.004 0.67381,0.002 1.01143,0.0106 0.33761,0.008 0.67511,0.019 1.01069,0.025 0.16171,0.003 0.32297,0.005 0.48359,0.005 0.17271,0 0.34543,0.001 0.51815,0.003 0.33334,0.004 0.66664,0.012 0.99979,0.0242 0.33315,0.0121 0.66614,0.0284 0.99884,0.0491 0.33271,0.0207 0.66512,0.0457 0.99713,0.0753 0.332,0.0296 0.66358,0.0638 0.99463,0.10277 0.027,0.003 0.054,0.006 0.081,0.01 0.30397,0.0365 0.61304,0.0662 0.92071,0.10377 0.33499,0.0409 0.66833,0.0912 0.99163,0.17004 0.3233,0.0788 0.63658,0.18603 0.93144,0.34081 0.008,0.004 0.0155,0.008 0.0232,0.0123 0.28618,0.15316 0.54867,0.33481 0.78751,0.54033 0.24529,0.21106 0.46563,0.4473 0.66109,0.70372 0.19545,0.25642 0.36601,0.53303 0.51173,0.82482 0.14571,0.29179 0.26658,0.59878 0.36264,0.91595 0.0961,0.31717 0.16732,0.64453 0.21382,0.97709 0.0465,0.33257 0.0682,0.67032 0.0653,1.00828 -0.003,0.33795 -0.0307,0.67611 -0.083,1.00947 -0.0524,0.33336 -0.12939,0.66193 -0.23104,0.98071 -0.0331,0.10393 -0.0689,0.20683 -0.10729,0.30851 -0.0793,0.21017 -0.15895,0.42263 -0.2312,0.63723 -0.1072,0.31844 -0.19819,0.64162 -0.24802,0.96915 -0.0324,0.2131 -0.0474,0.42805 -0.0381,0.64473 0.005,0.11635 0.0204,0.23109 0.0448,0.34381 0.0699,0.32263 0.21361,0.62863 0.39875,0.90792 0.0735,0.11081 0.15343,0.21742 0.23789,0.31919 0.12842,0.15473 0.28199,0.28485 0.45086,0.3933 0.18912,0.12147 0.39742,0.21577 0.61104,0.28703 0.10258,0.0342 0.20607,0.065 0.31031,0.0928 0.32133,0.0856 0.64984,0.1427 0.98112,0.18459 0.33129,0.0419 0.66535,0.0686 0.99778,0.0933 0.001,10e-5 0.003,2.1e-4 0.004,3.1e-4 0.33101,0.0246 0.66217,0.0458 0.99344,0.064 0.33268,0.0182 0.66549,0.0334 0.9984,0.0458 0.3329,0.0124 0.66592,0.0222 0.99902,0.0296 0.3331,0.007 0.66629,0.0124 0.99955,0.0155 0.33326,0.003 0.66659,0.004 0.99997,0.004 0.33338,-4.7e-4 0.66681,-0.003 1.00027,-0.006 0.33347,-0.003 0.66696,-0.008 1.00048,-0.0131 0.33351,-0.005 0.66703,-0.0116 1.00056,-0.0182 0.33352,-0.007 0.66704,-0.0138 1.00054,-0.0211 0.3335,-0.007 0.66698,-0.0146 1.00042,-0.0217 0.33344,-0.007 0.66684,-0.0139 1.00018,-0.0201 0.14921,-0.003 0.29841,-0.005 0.44759,-0.008 0.18411,-0.003 0.36824,-0.006 0.55241,-0.008 0.3334,-0.005 0.66688,-0.008 1.00042,-0.0119 0.33354,-0.004 0.66714,-0.007 1.00075,-0.01 0.33362,-0.003 0.66725,-0.007 1.00087,-0.0105 0.33362,-0.004 0.66722,-0.008 1.00078,-0.0134 0.33356,-0.005 0.66706,-0.0114 1.00048,-0.0189 0.33342,-0.007 0.66676,-0.0163 0.99998,-0.0268 0.33322,-0.0105 0.66632,-0.0228 0.99927,-0.0372 0.33295,-0.0144 0.66574,-0.0309 0.99834,-0.05 0.33261,-0.0191 0.66503,-0.0407 0.99722,-0.0653 0.3322,-0.0246 0.66417,-0.0522 0.99588,-0.0831 0.31148,-0.0291 0.62273,-0.0611 0.93373,-0.0964 0.0202,-0.002 0.0404,-0.005 0.0606,-0.007 0.33148,-0.0379 0.66499,-0.0784 0.99339,-0.1389 0.3284,-0.0605 0.65168,-0.14085 0.9627,-0.25844 0.052,-0.0197 0.10364,-0.0404 0.15492,-0.0622 0.25545,-0.10869 0.49305,-0.26318 0.6876,-0.45937 0.0924,-0.0931 0.17502,-0.19568 0.24528,-0.30719 0.10743,-0.17052 0.20411,-0.35106 0.28098,-0.53835 0.12713,-0.30977 0.20004,-0.63797 0.1777,-0.96975 -8.3e-4,-0.0124 -0.002,-0.0249 -0.003,-0.0374 -0.0284,-0.31956 -0.12589,-0.62415 -0.26026,-0.91604 -0.13909,-0.30216 -0.31775,-0.59069 -0.50037,-0.86809 -6.7e-4,-0.001 -0.001,-0.002 -0.002,-0.003 -0.18301,-0.27855 -0.32744,-0.57563 -0.44453,-0.88499 -0.11708,-0.30936 -0.20681,-0.63099 -0.28043,-0.95865 -0.0736,-0.32766 -0.13112,-0.66135 -0.18372,-0.99481 -0.0411,-0.26059 -0.0793,-0.52105 -0.11975,-0.77838 -0.0113,-0.072 -0.0224,-0.14392 -0.0334,-0.21592 -0.05,-0.32952 -0.0959,-0.65959 -0.13824,-0.99012 -0.0423,-0.33052 -0.081,-0.66151 -0.1165,-0.99287 -0.0355,-0.33135 -0.0679,-0.66308 -0.0976,-0.9951 -0.0297,-0.33202 -0.0567,-0.66432 -0.0815,-0.99682 -0.0248,-0.33251 -0.0474,-0.66521 -0.0682,-0.99803 -0.0208,-0.33281 -0.0399,-0.66575 -0.0577,-0.99871 -0.0145,-0.27149 -0.0282,-0.543 -0.0413,-0.81449 -0.003,-0.0615 -0.006,-0.12294 -0.009,-0.18443 -0.0156,-0.33308 -0.03,-0.66653 -0.0445,-1.00012 -0.0145,-0.33359 -0.0291,-0.66733 -0.045,-1.00099 -0.0159,-0.33366 -0.0331,-0.66724 -0.0529,-1.00053 -0.0197,-0.33329 -0.042,-0.66629 -0.0681,-0.99877 -0.0261,-0.33249 -0.0559,-0.66447 -0.0907,-0.99571 -0.0348,-0.33125 -0.0746,-0.66177 -0.12067,-0.99134 -0.046,-0.32957 -0.0983,-0.6582 -0.158,-0.98566 -0.0428,-0.23481 -0.0895,-0.46902 -0.1404,-0.70256 -0.0201,-0.0921 -0.0415,-0.1839 -0.0643,-0.27526 -0.0805,-0.32292 -0.17725,-0.64096 -0.28828,-0.95404 -0.11103,-0.31308 -0.23629,-0.6212 -0.37367,-0.92428 -0.13737,-0.30309 -0.28686,-0.60113 -0.44634,-0.89406 -0.15949,-0.29293 -0.32897,-0.58074 -0.50632,-0.86336 -0.0791,-0.12602 -0.15973,-0.25101 -0.24176,-0.37496 -0.10193,-0.15403 -0.20708,-0.30563 -0.31528,-0.45483 -0.19527,-0.26926 -0.4005,-0.53069 -0.61479,-0.78439 -0.2143,-0.2537 -0.43766,-0.49968 -0.6692,-0.73804 -0.23154,-0.23836 -0.47125,-0.46909 -0.71824,-0.69231 -0.247,-0.22323 -0.50128,-0.43893 -0.76195,-0.64723 -0.26066,-0.2083 -0.52772,-0.40919 -0.80028,-0.60278 -0.27256,-0.19359 -0.55062,-0.37988 -0.83329,-0.55896 -0.28266,-0.17909 -0.56994,-0.35099 -0.86093,-0.51579 -0.29099,-0.1648 -0.58569,-0.32251 -0.88322,-0.47324 -0.0438,-0.0222 -0.0877,-0.0443 -0.13167,-0.0661 -0.25439,-0.12677 -0.51079,-0.25019 -0.76917,-0.36935 -0.30301,-0.13974 -0.60877,-0.27361 -0.91725,-0.40011 -0.30847,-0.12651 -0.61968,-0.24565 -0.93359,-0.35593 -0.31392,-0.11029 -0.63054,-0.21172 -0.94987,-0.3028 -0.31933,-0.0911 -0.64136,-0.17182 -0.96608,-0.24072 -0.32472,-0.0689 -0.65213,-0.12596 -0.98221,-0.16969 -0.0608,-0.008 -0.12162,-0.0156 -0.18256,-0.0228 -0.27013,-0.0316 -0.54046,-0.0604 -0.81097,-0.0866 -0.33154,-0.0321 -0.66336,-0.0602 -0.99543,-0.0848 -0.33206,-0.0246 -0.66436,-0.0458 -0.99687,-0.0638 -0.33252,-0.0181 -0.66523,-0.0331 -0.99813,-0.0455 -0.33289,-0.0124 -0.66596,-0.0222 -0.99917,-0.0297 -0.33321,-0.008 -0.66656,-0.013 -1.00001,-0.0166 -0.33345,-0.004 -0.66702,-0.006 -1.00065,-0.006 -0.33363,-5.8e-4 -0.66734,1.6e-4 -1.00108,0.002 -0.33374,0.002 -0.66753,0.004 -1.00131,0.007 -0.33379,0.003 -0.66758,0.006 -1.00134,0.01 -0.33376,0.003 -0.66749,0.007 -1.00116,0.01 -0.33367,0.003 -0.66727,0.005 -1.00078,0.007 -0.26067,0.001 -0.52128,0.002 -0.78181,0.002 l -0.2184,0 -1,0 -1,0 -1,0 -1,0 -1,0 -1,0 -1,0 -1,0 -1,0 -1,0 -1,0 -1,0 -1,0 -0.70971,0 0,-0.29029 0,-1 0,-1 0,-1 0,-1 0,-0.11795 c 0,-0.29402 0.004,-0.59434 0.005,-0.89697 0.001,-0.3431 -0.001,-0.68918 -0.0166,-1.03241 -0.0152,-0.34324 -0.0431,-0.68363 -0.0931,-1.01536 -0.05,-0.33174 -0.12195,-0.65482 -0.22523,-0.96343 -0.10327,-0.3086 -0.23784,-0.60274 -0.41296,-0.87659 -0.0879,-0.13741 -0.18596,-0.26971 -0.29542,-0.39616 -0.1087,-0.12557 -0.2297,-0.23827 -0.36013,-0.33913 -0.26179,-0.20243 -0.56159,-0.35717 -0.87621,-0.47261 -0.14536,-0.0533 -0.29388,-0.0983 -0.44328,-0.13564 -0.17397,-0.0435 -0.34934,-0.0795 -0.52577,-0.1093 -0.32795,-0.0553 -0.65956,-0.0891 -0.99265,-0.10962 -0.3331,-0.0205 -0.66768,-0.0277 -1.00155,-0.0298 -0.0908,-5.8e-4 -0.18146,-7.9e-4 -0.27206,-7.9e-4 -0.24273,0 -0.48572,-0.002 -0.72871,-0.008 -0.33369,-0.007 -0.66738,-0.0205 -1.00039,-0.0413 -0.33301,-0.0208 -0.66534,-0.0494 -0.99631,-0.0876 -0.33097,-0.0382 -0.66057,-0.0861 -0.98814,-0.14562 -0.23126,-0.042 -0.46151,-0.0898 -0.6905,-0.14411 -0.0954,-0.0226 -0.19092,-0.0462 -0.2864,-0.0711 -0.32477,-0.0846 -0.64851,-0.18386 -0.95937,-0.30841 -0.31086,-0.12454 -0.60882,-0.27438 -0.88202,-0.46013 -0.15608,-0.10612 -0.30408,-0.22397 -0.44179,-0.35551 -0.10332,-0.0987 -0.19592,-0.20819 -0.27648,-0.32575 -0.18792,-0.27424 -0.3103,-0.59243 -0.35044,-0.92026 -0.024,-0.19639 -0.0186,-0.39625 0.02,-0.59218 0.0258,-0.13111 0.0608,-0.25908 0.10381,-0.38406 0.10718,-0.31174 0.26387,-0.60486 0.4511,-0.88178 0.18723,-0.27691 0.405,-0.53762 0.63433,-0.78453 0.0967,-0.1041 0.19542,-0.20574 0.29479,-0.30511 0.13633,-0.13633 0.28143,-0.26179 0.43389,-0.37688 0.26359,-0.19897 0.54918,-0.36697 0.84951,-0.50663 0.30033,-0.13966 0.61541,-0.251 0.93797,-0.33665 0.23375,-0.0621 0.47143,-0.11065 0.71028,-0.14676 0.0907,-0.0137 0.18154,-0.0268 0.2724,-0.0393 0.33001,-0.0454 0.66077,-0.0829 0.99213,-0.11378 0.33137,-0.0309 0.66334,-0.0552 0.99578,-0.0742 0.33244,-0.019 0.66535,-0.0327 0.99859,-0.0424 0.33324,-0.01 0.66681,-0.0154 1.00056,-0.0183 0.33376,-0.003 0.66771,-0.003 1.0017,-0.002 0.334,0.001 0.66804,0.004 1.002,0.007 0.33396,0.003 0.66782,0.006 1.00146,0.007 0.18888,9.7e-4 0.3777,0.002 0.56641,0.002 0.14462,0 0.28928,-1.3e-4 0.43397,-3.2e-4 0.33349,-4.5e-4 0.66715,-0.001 1.00087,-0.001 0.33372,-1.8e-4 0.6675,2e-4 1.00125,0.002 0.33374,0.002 0.66745,0.005 1.00101,0.0108 0.33357,0.006 0.66699,0.0137 1.00018,0.0249 0.33318,0.0113 0.66612,0.0258 0.99872,0.0444 0.33261,0.0186 0.66486,0.0414 0.99668,0.0692 0.33181,0.0278 0.66319,0.0606 0.99401,0.0994 0.18926,0.0222 0.37834,0.0463 0.56722,0.0725 0.14129,0.0196 0.28224,0.0414 0.42279,0.0655 0.32844,0.0562 0.65468,0.12453 0.97789,0.20478 0.3232,0.0802 0.64338,0.17241 0.95971,0.27631 0.31632,0.1039 0.62878,0.21952 0.93655,0.34669 0.30778,0.12717 0.61087,0.26587 0.90844,0.41593 0.0528,0.0266 0.10536,0.0536 0.15777,0.0809 0.24318,0.12675 0.48642,0.2604 0.73143,0.39144 0.29783,0.15928 0.59829,0.31468 0.90445,0.44911 0.30617,0.13443 0.61805,0.24788 0.93872,0.32324 0.19608,0.0461 0.39544,0.0779 0.5988,0.0916 0.12922,0.009 0.25726,0.007 0.38417,-0.004 0.32662,-0.0277 0.64576,-0.11449 0.9584,-0.23299 0.31263,-0.11849 0.61877,-0.26867 0.91937,-0.42311 0.12756,-0.0655 0.25412,-0.13183 0.37976,-0.1968 0.17045,-0.0881 0.33968,-0.18109 0.50686,-0.27881 0.2904,-0.16974 0.57458,-0.35387 0.84808,-0.55215 0.27351,-0.19828 0.53634,-0.41072 0.78405,-0.6371 0.2477,-0.22637 0.48028,-0.46667 0.69328,-0.72068 0.21301,-0.25401 0.40643,-0.52173 0.57582,-0.80293 0.16939,-0.28121 0.31475,-0.57589 0.43163,-0.88384 0.065,-0.17127 0.1212,-0.34664 0.16782,-0.52608 0.0372,-0.14318 0.0673,-0.28718 0.0906,-0.4317 0.0525,-0.32564 0.0704,-0.65395 0.0578,-0.98176 -0.0126,-0.3278 -0.0558,-0.65509 -0.12568,-0.97867 -0.0699,-0.32358 -0.16649,-0.64345 -0.28591,-0.95642 -0.11942,-0.31297 -0.26167,-0.61903 -0.42285,-0.915 -0.16119,-0.29597 -0.34131,-0.58183 -0.5365,-0.85441 -0.0743,-0.1037 -0.1507,-0.20548 -0.22911,-0.30516 -0.12768,-0.16231 -0.26296,-0.31792 -0.40509,-0.46661 -0.2294,-0.23999 -0.47662,-0.46195 -0.7384,-0.66494 -0.26178,-0.203 -0.53811,-0.38704 -0.82576,-0.55121 -0.28765,-0.16417 -0.5866,-0.30846 -0.89362,-0.43197 -0.30701,-0.1235 -0.62208,-0.22621 -0.94195,-0.30721 -0.31987,-0.081 -0.64455,-0.14028 -0.97077,-0.17694 -0.32623,-0.0367 -0.65401,-0.0507 -0.98009,-0.0412 -0.32608,0.01 -0.65046,0.0426 -0.96989,0.10009 -0.31943,0.0575 -0.6339,0.13951 -0.94017,0.24688 -0.30627,0.10737 -0.60434,0.24012 -0.89095,0.39917 -0.21045,0.11678 -0.41472,0.24774 -0.61152,0.39325 -0.0712,0.0527 -0.14334,0.10402 -0.2163,0.15406 -0.27456,0.18831 -0.56106,0.35802 -0.85713,0.50872 -0.29607,0.15069 -0.6017,0.28238 -0.91453,0.39462 -0.31283,0.11225 -0.63285,0.20507 -0.95767,0.27803 -0.18267,0.041 -0.36686,0.0758 -0.55214,0.10418 -0.1442,0.0221 -0.28855,0.0427 -0.43305,0.0618 -0.33015,0.0437 -0.66103,0.0798 -0.99251,0.10971 -0.33147,0.0299 -0.66354,0.0535 -0.99606,0.072 -0.33252,0.0185 -0.66549,0.032 -0.99877,0.0417 -0.33329,0.01 -0.66688,0.0155 -1.00065,0.0187 -0.33376,0.003 -0.6677,0.004 -1.00167,0.003 -0.33397,-7.1e-4 -0.66798,-0.003 -1.00187,-0.005 -0.3339,-0.002 -0.66769,-0.005 -1.00123,-0.006 -0.12616,-4.6e-4 -0.25228,-7.6e-4 -0.37836,-8.3e-4 -0.20725,-1.4e-4 -0.4146,1.5e-4 -0.62201,6.2e-4 -0.33359,7.4e-4 -0.66735,0.002 -1.00116,0.003 -0.33381,5.8e-4 -0.66768,5.4e-4 -1.00147,-0.001 -0.3338,-0.002 -0.66753,-0.005 -1.00108,-0.0112 -0.33355,-0.006 -0.66691,-0.015 -0.99997,-0.0276 -0.33307,-0.0126 -0.66583,-0.0291 -0.99817,-0.0504 -0.33234,-0.0213 -0.66427,-0.0474 -0.99565,-0.0795 -0.33139,-0.032 -0.66224,-0.07 -0.99243,-0.11496 -0.0497,-0.007 -0.0993,-0.0137 -0.14896,-0.0207 -0.28036,-0.04 -0.55942,-0.091 -0.8357,-0.15362 -0.3252,-0.0737 -0.64655,-0.16361 -0.96163,-0.27068 -0.31508,-0.10706 -0.62388,-0.2313 -0.92399,-0.37377 -0.3001,-0.14247 -0.59152,-0.30317 -0.87181,-0.48313 -0.0297,-0.019 -0.0592,-0.0383 -0.0886,-0.0578 -0.24851,-0.16458 -0.50132,-0.33043 -0.7589,-0.48931 -0.28806,-0.17767 -0.58207,-0.34662 -0.88268,-0.49532 -0.3006,-0.14869 -0.6078,-0.27713 -0.92222,-0.37379 -0.31442,-0.0967 -0.63606,-0.16153 -0.96557,-0.18309 -0.0795,-0.005 -0.15936,-0.008 -0.23973,-0.008 -0.25296,0 -0.50243,0.022 -0.74875,0.062 -0.32458,0.0527 -0.64369,0.1366 -0.9581,0.24261 -0.31441,0.10601 -0.62412,0.23411 -0.92991,0.37516 -0.30579,0.14105 -0.60766,0.29505 -0.90637,0.45286 -0.26134,0.13806 -0.52027,0.27904 -0.7773,0.4168 -0.0368,0.0197 -0.0736,0.0392 -0.1106,0.0585 -0.29546,0.15404 -0.59751,0.29442 -0.90497,0.42161 -0.30746,0.12719 -0.62033,0.24119 -0.93742,0.34246 -0.31709,0.10127 -0.63841,0.18981 -0.96278,0.26608 -0.32436,0.0763 -0.65176,0.14029 -0.98103,0.19251 -0.13396,0.0212 -0.26823,0.0405 -0.40273,0.0579 -0.19609,0.0253 -0.39236,0.0486 -0.58879,0.0699 -0.33117,0.036 -0.66279,0.0665 -0.99479,0.0925 -0.332,0.0259 -0.66438,0.0473 -0.99705,0.0648 -0.33267,0.0175 -0.66564,0.0312 -0.99882,0.0418 -0.33318,0.0107 -0.66657,0.0183 -1.00009,0.0237 -0.33352,0.005 -0.66717,0.009 -1.00087,0.0104 -0.33369,0.002 -0.66744,0.002 -1.00114,0.002 -0.33371,-2.6e-4 -0.66738,-0.001 -1.00093,-0.002 -0.24442,-5.1e-4 -0.48877,-9.2e-4 -0.73302,-9.2e-4 -0.0891,0 -0.17817,7e-5 -0.26728,2e-4 -0.33344,4.8e-4 -0.66705,0.002 -1.00075,0.003 -0.3337,0.001 -0.66749,0.002 -1.00128,0.002 -0.33378,4e-5 -0.66756,-9.1e-4 -1.00124,-0.004 -0.33368,-0.003 -0.66726,-0.008 -1.00066,-0.0151 -0.33339,-0.008 -0.6666,-0.0178 -0.99952,-0.0318 -0.33293,-0.014 -0.66557,-0.0316 -0.99784,-0.0538 -0.33226,-0.0222 -0.66416,-0.049 -0.99559,-0.0812 -0.33143,-0.0322 -0.66239,-0.0699 -0.9928,-0.11396 -0.003,-4.3e-4 -0.006,-8.6e-4 -0.01,-0.001 -0.32718,-0.0437 -0.65278,-0.10097 -0.97504,-0.17245 -0.32542,-0.0722 -0.64742,-0.15889 -0.9642,-0.26088 -0.31677,-0.102 -0.62831,-0.21927 -0.9328,-0.35259 -0.30448,-0.13332 -0.60191,-0.28269 -0.89047,-0.44885 -0.0629,-0.0362 -0.12533,-0.0732 -0.18734,-0.11102 -0.22259,-0.13571 -0.44788,-0.27187 -0.67613,-0.40408 -0.29185,-0.16903 -0.58856,-0.3316 -0.89073,-0.47853 -0.30216,-0.14693 -0.60979,-0.27822 -0.92348,-0.38468 -0.31368,-0.10645 -0.63343,-0.18808 -0.95983,-0.2357 m 76.18588,68.82221 c -0.3313,0.0367 -0.54679,0.30056 -0.70335,0.61729 -0.096,0.19416 -0.16979,0.4082 -0.23457,0.602 -0.0409,0.12234 -0.083,0.24426 -0.1261,0.3658 -0.1114,0.31409 -0.22965,0.62571 -0.35178,0.93592 -0.12214,0.31021 -0.24818,0.619 -0.37518,0.92741 -0.12699,0.3084 -0.25494,0.61642 -0.38092,0.92509 -0.0217,0.0532 -0.0433,0.10638 -0.0649,0.1596 -0.10364,0.2557 -0.20752,0.51131 -0.31163,0.76682 -0.12578,0.30869 -0.25189,0.61724 -0.37832,0.92567 -0.12643,0.30842 -0.25318,0.61672 -0.38021,0.9249 -0.12704,0.30818 -0.25436,0.61624 -0.38195,0.92419 -0.12758,0.30795 -0.25543,0.61579 -0.38353,0.92353 -0.12809,0.30774 -0.25642,0.61538 -0.38497,0.92292 -0.0617,0.14764 -0.12347,0.29526 -0.18528,0.44286 -0.0669,0.15987 -0.1337,0.31983 -0.20026,0.4799 -0.128,0.30785 -0.25525,0.61609 -0.38162,0.92472 -0.12637,0.30864 -0.25187,0.61768 -0.37636,0.92715 -0.12449,0.30947 -0.24798,0.61936 -0.37034,0.92971 -0.12236,0.31034 -0.2436,0.62113 -0.36358,0.9324 -0.11998,0.31127 -0.23872,0.62301 -0.35607,0.93524 -0.11736,0.31224 -0.23333,0.62497 -0.34781,0.93822 -0.11448,0.31326 -0.22745,0.62703 -0.3388,0.94134 -0.11135,0.31432 -0.22108,0.62917 -0.32905,0.94459 -0.10798,0.31543 -0.2142,0.63141 -0.31854,0.94799 -0.10435,0.31658 -0.20682,0.63374 -0.3073,0.95152 -0.10047,0.31778 -0.19894,0.63617 -0.29529,0.95519 -0.0963,0.31903 -0.19056,0.63869 -0.28254,0.95901 -0.092,0.32032 -0.18169,0.6413 -0.26904,0.96295 -0.0278,0.10232 -0.0553,0.20471 -0.0826,0.30717 -0.0585,0.21964 -0.11792,0.43943 -0.17708,0.65946 -0.0868,0.32268 -0.17304,0.64589 -0.25537,0.96991 -0.0823,0.32401 -0.1607,0.64884 -0.23169,0.97477 -0.071,0.32593 -0.13456,0.65296 -0.18729,0.98138 -0.0527,0.32841 -0.0946,0.65821 -0.12219,0.98968 -0.0125,0.15022 -0.0221,0.30078 -0.0284,0.45171 -0.008,0.18211 -0.007,0.36392 3.3e-4,0.54527 0.0138,0.33167 0.0514,0.66183 0.10767,0.98962 0.0563,0.3278 0.13118,0.65323 0.21948,0.97543 0.0883,0.32221 0.19001,0.64118 0.29989,0.95607 0.008,0.0217 0.0152,0.0434 0.0228,0.0651 0.10332,0.29264 0.21171,0.58439 0.32645,0.87379 0.12325,0.31084 0.25383,0.61896 0.39334,0.92256 0.13951,0.30359 0.28795,0.60266 0.44692,0.89538 0.15896,0.29272 0.32845,0.57909 0.51006,0.85731 0.18161,0.27821 0.37534,0.54826 0.58279,0.80833 0.0696,0.0873 0.14082,0.17349 0.21361,0.25848 0.14405,0.16818 0.29443,0.33033 0.45053,0.48658 0.23498,0.23522 0.48291,0.45709 0.74166,0.66609 0.25875,0.20899 0.52831,0.40511 0.80655,0.58882 0.27824,0.18372 0.56516,0.35503 0.85863,0.51441 0.29346,0.15939 0.59347,0.30684 0.89789,0.44284 0.0185,0.008 0.0371,0.0165 0.0556,0.0247 0.28639,0.1264 0.57602,0.24547 0.86845,0.35721 0.31139,0.11899 0.62596,0.22967 0.94318,0.33209 0.0987,0.0318 0.19761,0.0629 0.29679,0.0932 0.21965,0.067 0.44049,0.13666 0.66332,0.19562 0.29901,0.0791 0.60159,0.13899 0.90963,0.14742 0.0252,6.8e-4 0.0503,0.001 0.0754,0.001 0.33264,0.001 0.6615,-0.0479 0.98569,-0.12669 0.32419,-0.0788 0.6437,-0.18721 0.95766,-0.30438 0.0865,-0.0323 0.17263,-0.0652 0.25829,-0.0984 0.22517,-0.0872 0.44811,-0.17991 0.66891,-0.27747 0.30481,-0.13467 0.60554,-0.27863 0.90244,-0.43029 0.2969,-0.15167 0.58997,-0.31105 0.87942,-0.47657 0.11578,-0.0662 0.23098,-0.1334 0.34562,-0.20147 0.17197,-0.10212 0.34279,-0.2063 0.51221,-0.31275 0.28235,-0.1774 0.56079,-0.36106 0.83415,-0.55186 0.27335,-0.1908 0.54162,-0.38873 0.80361,-0.59466 0.14167,-0.11134 0.2815,-0.22503 0.41931,-0.34119 0.11706,-0.0987 0.23401,-0.1987 0.34925,-0.30091 0.25091,-0.22254 0.49369,-0.4554 0.71174,-0.70695 0.2046,-0.23604 0.38743,-0.48855 0.53478,-0.76444 0.01,-0.0181 0.0193,-0.0363 0.0288,-0.0545 0.15471,-0.2949 0.29061,-0.59688 0.40958,-0.90474 0.11896,-0.30787 0.22099,-0.62163 0.30796,-0.94011 0.087,-0.31849 0.15886,-0.6417 0.21755,-0.96845 0.0587,-0.32676 0.1042,-0.65707 0.13836,-0.98975 0.0342,-0.33268 0.057,-0.66774 0.0704,-1.00401 0.0134,-0.33626 0.0173,-0.67373 0.0136,-1.01122 -0.004,-0.3375 -0.0149,-0.67503 -0.0319,-1.01141 -0.017,-0.33639 -0.0397,-0.67163 -0.0663,-1.00456 -0.004,-0.0518 -0.008,-0.10353 -0.0127,-0.15521 -0.0234,-0.2805 -0.0507,-0.56061 -0.0817,-0.84028 -0.0367,-0.33119 -0.0787,-0.66176 -0.12587,-0.99158 -0.0471,-0.32983 -0.0994,-0.65892 -0.15665,-0.98716 -0.0572,-0.32824 -0.11948,-0.65564 -0.18656,-0.98208 -0.0671,-0.32645 -0.139,-0.65194 -0.21562,-0.97637 -0.0766,-0.32443 -0.15795,-0.6478 -0.24384,-0.97 -0.0859,-0.3222 -0.17633,-0.64323 -0.27119,-0.96299 -0.0949,-0.31975 -0.19415,-0.63823 -0.2977,-0.95532 -0.10356,-0.31709 -0.21139,-0.6328 -0.32335,-0.94701 -0.11196,-0.31422 -0.22806,-0.62694 -0.34814,-0.93806 -0.12009,-0.31112 -0.24416,-0.62063 -0.37208,-0.92844 -8e-5,-1.9e-4 -1.6e-4,-3.8e-4 -2.4e-4,-5.7e-4 -0.12785,-0.30762 -0.25565,-0.61526 -0.38341,-0.92291 -0.12784,-0.30785 -0.25564,-0.61571 -0.3834,-0.92359 -0.12776,-0.30787 -0.25549,-0.61576 -0.3832,-0.92366 -0.12771,-0.3079 -0.2554,-0.61581 -0.38307,-0.92372 -0.12768,-0.30791 -0.25534,-0.61583 -0.38301,-0.92375 -0.12766,-0.30792 -0.25532,-0.61584 -0.38299,-0.92375 -0.12767,-0.30792 -0.25534,-0.61583 -0.38304,-0.92373 -0.12769,-0.30791 -0.25541,-0.6158 -0.38315,-0.92369 -0.12774,-0.30788 -0.25551,-0.61576 -0.38332,-0.92361 -0.12781,-0.30786 -0.25565,-0.6157 -0.38355,-0.92352 -0.1279,-0.30782 -0.25584,-0.61563 -0.38384,-0.9234 -0.12801,-0.30778 -0.25607,-0.61553 -0.3842,-0.92325 -0.0142,-0.034 -0.0283,-0.0681 -0.0425,-0.10212 -0.11398,-0.27367 -0.22834,-0.54764 -0.34481,-0.8208 -0.13095,-0.30713 -0.26457,-0.61324 -0.40329,-0.91675 -0.13872,-0.30352 -0.28255,-0.60443 -0.43394,-0.90118 -0.15139,-0.29675 -0.31034,-0.58934 -0.47929,-0.87618 -0.098,-0.16644 -0.19944,-0.33095 -0.30468,-0.49322 -0.0761,-0.11739 -0.15556,-0.2437 -0.23974,-0.36904 -0.20053,-0.29861 -0.42806,-0.59171 -0.70252,-0.7456"
       id="path4156-6-1-3"
       inkscape:connector-curvature="0"
       inkscape:path-effect="#path-effect5847"
       inkscape:original-d="m 589.49078,580.21737 c -1.41475,-0.0498 -2.63931,0.69311 -4.24405,2.29791 -2.71329,2.71326 -3.05417,5.40978 -1.07861,8.23025 2.215,3.16242 4.86563,3.67587 9.07434,1.75859 3.1806,-1.44893 5.09598,-1.65426 13.81091,-1.45377 l 10.12955,0.23448 1.26619,2.3448 c 1.18275,2.1605 1.16602,2.40591 -0.32828,3.5172 -0.92232,0.68586 -3.46746,1.19585 -5.95579,1.19585 -5.59196,0 -6.94062,1.29688 -6.94062,6.68268 l 0,4.10341 -14.09228,0 -14.11569,0 0,11.18469 0,11.1847 15.96812,0.0235 15.96805,0.0234 2.06343,3.39996 c 2.41173,3.96388 5.80137,5.67441 11.25504,5.67441 4.98891,0 8.65543,-1.78672 11.91158,-5.83855 2.60953,-3.24718 2.66295,-3.28272 8.44129,-3.28272 3.20056,0 6.55261,0.40729 7.45646,0.89102 2.39462,1.28158 3.2984,4.30764 2.18071,7.26888 -0.73503,1.94722 -0.69925,2.78173 0.16409,3.82203 0.94588,1.13968 3.0697,1.29644 14.79573,1.10205 11.96553,-0.19836 13.7866,-0.39825 14.58466,-1.66481 0.69068,-1.09629 0.62631,-1.91513 -0.30487,-3.32961 -0.80413,-1.22144 -1.38879,-4.89096 -1.66477,-10.62195 -0.37223,-7.72896 -0.68851,-9.18263 -2.64966,-12.14607 -1.4495,-2.19025 -3.74508,-4.11661 -6.58885,-5.53372 -4.1889,-2.0874 -4.91657,-2.15721 -18.28944,-2.15721 l -13.92811,0 0,-4.40824 c 0,-5.31201 -0.93304,-6.37784 -5.51033,-6.37784 -7.03807,0 -9.52611,-2.3855 -6.09648,-5.81512 1.45663,-1.45664 2.77355,-1.64136 10.76268,-1.64136 7.57419,0 9.62389,0.28708 12.35706,1.71171 3.06535,1.59773 3.45867,1.61716 5.8151,0.39862 4.41265,-2.28187 5.42216,-6.18079 2.55588,-9.82471 -2.41136,-3.06552 -6.21354,-3.68517 -9.16821,-1.50067 -2.0572,1.52093 -3.50288,1.73965 -11.30194,1.73514 -7.53338,-0.005 -9.34814,-0.25426 -11.44262,-1.64136 -3.1193,-2.06585 -4.23513,-2.06585 -8.08953,0 -2.57898,1.38223 -4.68143,1.64136 -12.61503,1.64136 -8.05238,0 -9.91974,-0.24106 -12.21645,-1.64136 -1.60976,-0.98146 -2.83889,-1.50879 -3.93926,-1.54757 z m 76.67497,68.86679 c -0.36436,0.0404 -0.68018,0.44823 -0.93792,1.21929 -0.27942,0.83591 -1.94937,4.95271 -3.70478,9.14471 -1.75541,4.192 -3.82409,10.053 -4.61923,13.0371 -1.25028,4.692 -1.30438,5.8603 -0.35175,8.5584 1.3846,3.9217 3.11584,5.9408 6.28407,7.3393 1.36801,0.6038 3.02731,1.1076 3.68137,1.1255 2.35816,0.064 8.09155,-3.3394 9.23851,-5.4869 2.01398,-3.7709 1.36952,-11.505 -1.54757,-18.5238 -1.42143,-3.42 -3.50707,-8.4577 -4.6427,-11.1847 -1.51088,-3.6277 -2.59849,-5.31768 -3.4,-5.2289 z" />
    <path
       sodipodi:type="arc"
       style="fill:#000000;fill-opacity:1;fill-rule:nonzero;stroke:none"
       id="path5798"
       sodipodi:cx="561.89734"
       sodipodi:cy="530.61841"
       sodipodi:rx="5.8083773"
       sodipodi:ry="2.0203052"
       d="m 567.70572,530.61841 a 5.8083773,2.0203052 0 1 1 -11.61676,0 5.8083773,2.0203052 0 1 1 11.61676,0 z"
       transform="matrix(0.60414795,-0.0290563,0.00440322,0.11453062,218.0159,483.96319)" />
    <path
       style="fill:#000000;fill-opacity:1;fill-rule:nonzero;stroke:none"
       id="path5879"
       d="m 433.90666,348.23471 c 0.10769,0.1088 0.20322,0.42163 0.32306,0.32638 0.61815,-0.49131 0.99639,-1.22686 1.53563,-1.80367 0.50588,-0.54113 1.05848,-1.03673 1.59613,-1.54631 1.9185,-1.81833 3.90844,-3.55864 5.84191,-5.36129 3.22384,-3.56643 7.03912,-6.47857 10.77954,-9.45776 0.54596,-0.43485 5.77404,-4.83012 6.20254,-5.18986 4.43782,-3.17376 8.90419,-6.35608 13.56708,-9.19818 0.75971,-0.46306 1.55625,-0.86278 2.33437,-1.29417 0.75698,-0.47273 1.51395,-0.94545 2.27092,-1.41818 7.67088,-5.37808 16.6948,-8.29228 25.47151,-11.31648 13.97613,-5.06517 27.33946,-11.65443 40.92124,-17.66871 5.56645,-2.317 10.98816,-4.95313 16.40111,-7.60179 0,0 38.21985,28.47145 38.21985,28.47145 l 0,0 c -5.99373,2.27704 -12.00016,4.52034 -17.98333,6.82515 -7.14641,2.77279 -14.25891,5.58015 -21.1794,8.89046 -7.81175,3.73664 -5.33142,2.78625 -12.88897,6.78305 -1.9615,1.03734 -3.95814,2.00686 -5.93721,3.01028 -2.49736,1.17369 -6.83853,3.25158 -9.48427,4.36136 -14.61892,6.13202 5.61645,-2.52176 -6.80286,2.50908 -5.8919,2.38671 0.0479,0.39875 -4.83944,1.9514 -1.87344,1.15059 -3.66027,2.44607 -5.58499,3.50865 -0.90776,0.50115 -1.90113,0.83103 -2.82756,1.2968 -3.1034,1.56027 -6.11439,3.32164 -9.1666,4.97774 -2.7971,1.70137 -2.88571,1.62049 -5.51274,3.81084 -0.95862,0.79927 -1.82831,1.70127 -2.78591,2.50177 -2.08526,1.74316 -4.37134,3.25795 -6.36675,5.11543 -1.72485,1.80018 -3.4042,3.63917 -5.11823,5.44929 -0.36446,0.38489 -0.70739,0.79171 -1.09615,1.15204 -0.16189,0.15005 -0.42314,0.18978 -0.54795,0.37184 -0.4061,0.59231 -0.6742,1.26826 -1.01129,1.90239 0,0 -46.33124,-21.359 -46.33124,-21.359 z"
       inkscape:connector-curvature="0" />
    <path
       style="fill:#000000;fill-opacity:1;fill-rule:nonzero;stroke:none"
       id="path5889"
       d="m 523.54122,512.56806 c 0.0964,-0.14343 0.18054,-0.29595 0.28927,-0.43029 0.6106,-0.75447 1.40739,-1.37614 2.15471,-1.98236 2.92559,-2.3732 -0.68474,0.60486 2.19304,-1.77884 3.27708,-2.62097 6.60599,-5.18087 9.97427,-7.68399 2.58502,-1.89368 5.33149,-3.54716 7.93012,-5.4205 0,0 11.36916,-4.49151 11.36916,-4.49151 l 0,0 c -2.78837,1.98024 -5.74236,3.70183 -8.55603,5.64489 -3.17106,2.35788 -6.25067,4.8278 -9.30605,7.33281 -1.32754,1.15587 -2.71137,2.24555 -3.98342,3.46237 0,0 -12.06507,5.34742 -12.06507,5.34742 z"
       inkscape:connector-curvature="0" />
    <path
       style="fill:#000000;fill-opacity:1;stroke:none"
       d="m -73.228952,713.28407 c -1.79282,-0.0444 -3.517873,0.61781 -5.988218,2.04829 -4.176766,2.41852 -5.42129,4.82214 -3.505599,7.33622 2.147811,2.8189 5.710536,3.27657 11.770741,1.56756 4.579823,-1.29154 7.142238,-1.47456 18.782188,-1.29585 4.509737,0.0697 9.024099,0.13935 13.543087,0.20902 0.515319,0.6967 1.03642,1.3934 1.563302,2.09009 1.478154,1.92581 1.467677,2.14456 -0.650883,3.13513 -1.307623,0.61136 -4.859041,1.06594 -8.295607,1.06594 -3.861459,0 -6.290699,0.289 -7.855425,1.1781 -1.564727,0.88909 -2.264949,2.37828 -2.625961,4.77866 -0.183368,1.21922 -0.366735,2.43844 -0.550103,3.65766 l -20.350415,0 -20.384194,0 c -1.114153,3.32325 -2.228311,6.64649 -3.342461,9.96973 -1.11416,3.32325 -2.22831,6.6465 -3.34247,9.96975 8.379621,0.007 16.759971,0.014 25.141055,0.021 8.381069,0.007 16.762864,0.0139 25.145384,0.0208 0.956062,1.01021 1.925785,2.02042 2.909169,3.03063 3.449176,3.5333 8.876146,5.05801 17.754936,5.05801 8.12215,0 14.139735,-1.59263 19.18756,-5.20432 2.022728,-1.44722 3.029496,-2.17875 4.6823504,-2.54848 1.6528547,-0.36972 3.9456529,-0.37765 8.4953978,-0.37765 5.0401363,0 10.3662078,0.36305 11.8561478,0.79423 3.947436,1.14236 5.864961,3.83972 4.468276,6.47929 -0.918522,1.73569 -0.759658,2.47956 0.807578,3.40686 1.717192,1.01586 5.269114,1.15561 24.586679,0.98233 19.712097,-0.17681 22.647277,-0.35499 23.560426,-1.48398 0.790295,-0.97718 0.413363,-1.70708 -1.537671,-2.96792 -1.684798,-1.08876 -3.745833,-4.35966 -5.905946,-9.46812 -1.456611,-3.44468 -2.408735,-5.49097 -3.47586,-7.00627 -1.067124,-1.51531 -2.250807,-2.49963 -4.135123,-3.8204 -2.785437,-1.95233 -6.688612,-3.66943 -11.182286,-4.9326 -3.309617,-0.93033 -5.206872,-1.41105 -8.703479,-1.65918 -3.496607,-0.24814 -8.586824,-0.2637 -18.24259,-0.2637 l -20.1133359,0 c -0.087611,-1.30979 -0.1752218,-2.61958 -0.2628327,-3.92938 -0.3167185,-4.73498 -1.6688524,-5.68503 -7.9904384,-5.68503 -4.860041,0 -8.151333,-0.53159 -9.60951,-1.44532 -1.458178,-0.91372 -1.086656,-2.20959 1.237405,-3.73813 1.974145,-1.2984 3.72308,-1.46306 14.408684,-1.46306 10.1305801,0 12.8811688,0.2559 16.7449169,1.52577 4.3333039,1.42417 4.9152291,1.44149 7.9000431,0.35532 2.794669,-1.017 4.324469,-2.39434 4.598513,-3.92345 0.274044,-1.52911 -0.702927,-3.20998 -2.875454,-4.83402 -3.655413,-2.73252 -8.5069954,-3.28487 -12.032861,-1.33767 -2.45491583,1.35571 -4.3197815,1.55068 -14.410611,1.54666 -9.747133,-0.005 -12.112169,-0.22664 -14.78721,-1.46306 -3.983896,-1.84144 -5.31924,-1.84144 -10.388815,0 -3.392051,1.23208 -6.151964,1.46306 -16.416617,1.46306 -10.418322,0 -12.807452,-0.21488 -15.472748,-1.46306 -1.868097,-0.87485 -3.314795,-1.3449 -4.709198,-1.37947 2.8e-5,1e-5 5.5e-5,1e-5 8.3e-5,1e-5 z m 113.059478,61.38597 c -0.602245,0.036 -1.042146,0.39954 -1.309428,1.08684 -0.289749,0.74515 -2.225282,4.41473 -4.459534,8.15136 -1.117153,1.86833 -2.326969,4.10856 -3.39062,6.21421 -1.063652,2.10564 -1.978846,4.0767 -2.44969,5.40667 -1.480741,4.1824 -1.442528,5.2237 0.780667,7.62872 3.231279,3.49569 6.875587,5.29547 13.200806,6.54205 2.731103,0.53821 6.017054,0.98729 7.27267,1.00324 2.263501,0.0285 5.944705,-0.71566 9.223263,-1.70623 3.278558,-0.99057 6.150132,-2.22754 6.930699,-3.18465 1.370664,-1.68063 1.17261,-4.24444 -0.263029,-7.17013 -1.435639,-2.9257 -4.099983,-6.21327 -7.630282,-9.34144 -1.72022,-1.52426 -3.818169,-3.409 -5.797453,-5.21652 -1.979283,-1.80752 -3.840719,-3.53782 -5.140263,-4.75321 -3.457822,-3.23363 -5.642992,-4.74004 -6.967806,-4.66091 z"
       id="path4156-6-3"
       inkscape:connector-curvature="0"
       inkscape:path-effect="#path-effect6139"
       inkscape:original-d="m -57.732132,713.9981 c -1.26107,-0.0444 -2.3526,0.61781 -3.78304,2.04829 -2.41855,2.41852 -2.7224,4.82214 -0.96143,7.33622 1.97438,2.8189 4.33709,3.27657 8.08861,1.56756 2.8351,-1.29154 4.54243,-1.47456 12.31067,-1.29585 l 9.02921,0.20902 1.12865,2.09009 c 1.05426,1.92581 1.03936,2.14456 -0.29262,3.13513 -0.82213,0.61136 -3.0908,1.06594 -5.30883,1.06594 -4.98453,0 -6.18668,1.156 -6.18668,5.95676 l 0,3.65766 -12.56148,0 -12.58233,0 0,9.96973 0,9.96975 14.23354,0.021 14.23349,0.0208 1.83927,3.03063 c 2.14976,3.5333 5.17119,5.05801 10.03244,5.05801 4.44698,0 7.71522,-1.59263 10.61765,-5.20432 2.32608,-2.89444 2.37368,-2.92613 7.52434,-2.92613 2.8529104,0 5.8408304,0.36305 6.6464904,0.79423 2.13451,1.14236 2.94011,3.83972 1.94383,6.47929 -0.65518,1.73569 -0.62329,2.47956 0.1462,3.40686 0.84313,1.01586 2.73624,1.15561 13.1885096,0.98233 10.66574,-0.17681 12.289,-0.35499 13.00036,-1.48398 0.61567,-0.97718 0.55828,-1.70708 -0.27175,-2.96792 -0.71677,-1.08876 -1.23793,-4.35966 -1.48393,-9.46812 -0.33179,-6.88937 -0.61372,-8.18514 -2.36182,-10.82667 -1.29205,-1.95233 -3.33827,-3.66943 -5.87313,-4.9326 -3.73388,-1.86066 -4.38249,-1.92288 -16.3027096,-1.92288 l -12.4151404,0 0,-3.92938 c 0,-4.73498 -0.83168,-5.68503 -4.91176,-5.68503 -6.27354,0 -8.49131,-2.12637 -5.43423,-5.18345 1.2984,-1.2984 2.47226,-1.46306 9.59357,-1.46306 6.7514204,0 8.5784604,0.2559 11.0147404,1.52577 2.73236,1.42417 3.08296,1.44149 5.18342,0.35532 3.93331,-2.034 4.83317,-5.50939 2.27824,-8.75747 -2.14942,-2.73252 -5.53858,-3.28487 -8.17229,-1.33767 -1.83374,1.35571 -3.12238,1.55068 -10.0742504,1.54666 -6.71504,-0.005 -8.33267,-0.22664 -10.19964,-1.46306 -2.78045,-1.84144 -3.77506,-1.84144 -7.21078,0 -2.29884,1.23208 -4.1729,1.46306 -11.2447,1.46306 -7.17767,0 -8.84219,-0.21488 -10.88941,-1.46306 -1.43489,-0.87485 -2.53051,-1.3449 -3.51134,-1.37947 z m 68.34598,61.38597 c -0.32478,0.036 -0.6063,0.39954 -0.8360396,1.08684 -0.24906,0.74515 -1.73762,4.41473 -3.30233,8.15136 -1.56474,3.73665 -3.4087,8.96093 -4.11746,11.62088 -1.11446,4.1824 -1.1627,5.2237 -0.31354,7.62872 1.23419,3.49569 2.77736,5.29547 5.60145,6.54205 1.21939,0.53821 2.6984596,0.98729 3.2814596,1.00324 2.10201,0.057 7.2126,-2.97666 8.23495,-4.89088 1.79522,-3.36127 1.22077,-10.25524 -1.37945,-16.51157 -1.26702,-3.04852 -3.12611,-7.53896 -4.13838,-9.96973 -1.34676,-3.23363 -2.31622,-4.74004 -3.03066,-4.66091 z" />
    <g
       id="g6296"
       transform="matrix(0.7547134,0,0,0.7547134,135.72754,85.706559)"
       inkscape:path-effect="#path-effect6339">
      <path
         inkscape:connector-curvature="0"
         id="path4156-4"
         d="m 210.99883,912.32944 c -1.86166,-0.0511 -3.58871,0.69478 -5.98639,2.3069 -4.05398,2.72563 -5.02805,5.43641 -2.82143,8.2728 2.47404,3.18026 6.07569,3.69744 12.07779,1.77254 4.53589,-1.45469 7.14081,-1.65991 18.96312,-1.45371 4.5804,0.0804 9.16353,0.16073 13.7494,0.24108 0.5312,0.78552 1.06585,1.57102 1.60393,2.3565 1.50936,2.17125 1.48969,2.41773 -0.62873,3.53359 -1.30754,0.68868 -4.85937,1.20001 -8.30275,1.19895 -7.73822,-0.002 -9.72881,1.30032 -10.2429,6.71259 -0.13057,1.37453 -0.26106,2.74905 -0.3915,4.12358 l -20.02619,-0.003 -20.05946,-0.003 c -0.71885,3.74827 -1.43723,7.49654 -2.15512,11.24481 -0.7179,3.74828 -1.43532,7.49655 -2.15226,11.24483 7.97382,0.007 15.94807,0.0145 23.92276,0.0217 7.97465,0.007 15.94973,0.0144 23.92525,0.0216 0.93781,1.13874 1.88374,2.27744 2.83779,3.41611 3.34604,3.98257 8.45153,5.70022 16.79495,5.69877 7.63239,-0.001 13.29756,-1.79727 18.19198,-5.86766 1.96123,-1.63103 2.94691,-2.4554 4.53298,-2.87214 1.58606,-0.41673 3.76888,-0.42582 8.0979,-0.42616 4.79559,-3.8e-4 9.83987,0.40824 11.22604,0.89387 3.67245,1.28663 5.27207,4.32494 3.76678,7.29875 -0.98994,1.95548 -0.88844,2.79349 0.51215,3.83783 1.5345,1.14411 4.83705,1.30075 22.91365,1.10172 18.44581,-0.20309 21.21734,-0.40429 22.22929,-1.67574 0.87577,-1.10052 0.6289,-1.9223 -1.03122,-3.34174 -1.43361,-1.22572 -2.92775,-4.90865 -4.27227,-10.66082 -1.81331,-7.75751 -2.51857,-9.21654 -5.81233,-12.19131 -2.43443,-2.19862 -6.01368,-4.13265 -10.26109,-5.55582 -3.12823,-1.04816 -4.93858,-1.58988 -8.34995,-1.86993 -3.41137,-0.28005 -8.42035,-0.29845 -17.92228,-0.30011 l -19.7929,-0.003 c -0.0282,-1.47584 -0.0563,-2.95168 -0.0844,-4.42752 -0.1014,-5.33525 -1.41243,-6.40613 -7.74653,-6.40807 -4.86968,-0.001 -8.15685,-0.60158 -9.61093,-1.63183 -1.45407,-1.03025 -1.07705,-2.49066 1.29799,-4.21241 2.01745,-1.46253 3.8016,-1.64734 14.65123,-1.64299 10.28612,0.004 13.07034,0.29361 16.88174,1.72562 4.27463,1.606 4.8415,1.62558 7.96295,0.40325 5.84522,-2.28895 6.76518,-6.20259 2.63095,-9.86319 -3.47806,-3.07955 -8.49285,-3.70474 -12.28996,-1.51312 -2.64375,1.52588 -4.57002,1.74462 -14.96005,1.73488 -10.03611,-0.01 -12.45972,-0.2616 -15.20623,-1.65649 -4.09035,-2.07746 -5.5128,-2.0785 -10.73105,-0.006 -3.49153,1.38694 -6.32023,1.64595 -16.88943,1.64066 -10.72744,-0.005 -13.19524,-0.24885 -16.05044,-1.65789 -2.0012,-0.98759 -3.5449,-1.51854 -4.99287,-1.55831 0,0 0,0 0,0 z m 109.24345,69.19196 c -0.56339,0.0407 -1.00881,0.45027 -1.32469,1.22447 -0.34246,0.83935 -2.49623,4.9731 -4.8755,9.18285 -2.37927,4.20977 -5.21433,10.09588 -6.26574,13.09278 -1.65324,4.7123 -1.67805,5.8855 0.13803,8.5938 2.6396,3.9364 5.74784,5.9619 11.26519,7.3626 2.38233,0.6048 5.25938,1.1088 6.3726,1.1261 2.00678,0.031 5.34279,-0.8094 8.35881,-1.9269 3.01603,-1.1175 5.70951,-2.5122 6.51175,-3.5905 2.81733,-3.7871 0.45005,-11.5493 -5.27606,-18.59271 -2.79018,-3.43197 -6.79447,-8.48776 -8.93455,-11.22474 -2.84718,-3.64097 -4.7305,-5.3372 -5.96984,-5.24775 z"
         style="fill:#000000;fill-opacity:1;fill-rule:nonzero;stroke:none"
         inkscape:original-d="m 225.51804,915.38988 c -1.41475,-0.0498 -2.63931,0.69311 -4.24405,2.29791 -2.71329,2.71326 -3.05417,5.40978 -1.07861,8.23025 2.215,3.16242 4.86563,3.67587 9.07434,1.75859 3.1806,-1.44893 5.09598,-1.65426 13.81091,-1.45377 l 10.12955,0.23448 1.26619,2.3448 c 1.18275,2.1605 1.16602,2.40591 -0.32828,3.5172 -0.92232,0.68586 -3.46746,1.19585 -5.95579,1.19585 -5.59196,0 -6.94062,1.29688 -6.94062,6.68268 l 0,4.10341 -14.09228,0 -14.11569,0 0,11.18469 0,11.1847 15.96812,0.0235 15.96805,0.0234 2.06343,3.39996 c 2.41173,3.96388 5.80137,5.67441 11.25504,5.67441 4.98891,0 8.65543,-1.78672 11.91158,-5.83855 2.60953,-3.24718 2.66295,-3.28272 8.44129,-3.28272 3.20056,0 6.55261,0.40729 7.45646,0.89102 2.39462,1.28158 3.2984,4.30764 2.18071,7.26888 -0.73503,1.94722 -0.69925,2.78173 0.16409,3.82203 0.94588,1.13968 3.0697,1.29644 14.79573,1.10205 11.96553,-0.19836 13.7866,-0.39825 14.58466,-1.66481 0.69068,-1.09629 0.62631,-1.91513 -0.30487,-3.32961 -0.80413,-1.22144 -1.38879,-4.89096 -1.66477,-10.62195 -0.37223,-7.72896 -0.68851,-9.18263 -2.64966,-12.14607 -1.4495,-2.19025 -3.74508,-4.11661 -6.58885,-5.53372 -4.1889,-2.0874 -4.91657,-2.15721 -18.28944,-2.15721 l -13.92811,0 0,-4.40824 c 0,-5.31201 -0.93304,-6.37784 -5.51033,-6.37784 -7.03807,0 -9.52611,-2.3855 -6.09648,-5.81512 1.45663,-1.45664 2.77355,-1.64136 10.76268,-1.64136 7.57419,0 9.62389,0.28708 12.35706,1.71171 3.06535,1.59773 3.45867,1.61716 5.8151,0.39862 4.41265,-2.28187 5.42216,-6.18079 2.55588,-9.82471 -2.41136,-3.06552 -6.21354,-3.68517 -9.16821,-1.50067 -2.0572,1.52093 -3.50288,1.73965 -11.30194,1.73514 -7.53338,-0.005 -9.34814,-0.25426 -11.44262,-1.64136 -3.1193,-2.06585 -4.23513,-2.06585 -8.08953,0 -2.57898,1.38223 -4.68143,1.64136 -12.61503,1.64136 -8.05238,0 -9.91974,-0.24106 -12.21645,-1.64136 -1.60976,-0.98146 -2.83889,-1.50879 -3.93926,-1.54757 z m 76.67497,68.86679 c -0.36436,0.0404 -0.68018,0.44823 -0.93792,1.21929 -0.27942,0.83594 -1.94937,4.95273 -3.70478,9.14472 -1.75541,4.19201 -3.82409,10.05292 -4.61923,13.03702 -1.25028,4.6922 -1.30438,5.8605 -0.35175,8.5586 1.3846,3.9217 3.11584,5.9408 6.28407,7.3393 1.36801,0.6038 3.02731,1.1076 3.68137,1.1255 2.35816,0.064 8.09155,-3.3394 9.23851,-5.4869 2.01398,-3.7709 1.36952,-11.5052 -1.54757,-18.524 -1.42143,-3.41997 -3.50707,-8.45763 -4.6427,-11.18462 -1.51088,-3.62769 -2.59849,-5.31769 -3.4,-5.22891 z" />
      <path
         inkscape:connector-curvature="0"
         id="path6183"
         d="M 211.55424,891.52208 C 204.3215,937.55403 197.16117,983.586 190.07323,1029.618"
         style="fill:none;stroke:#000000;stroke-width:1px;stroke-linecap:butt;stroke-linejoin:miter;stroke-opacity:1"
         inkscape:original-d="m 223.46779,894.69173 0,137.38077" />
      <path
         inkscape:connector-curvature="0"
         id="path6183-6"
         d="m 248.0187,872.26798 c -2.78367,46.01085 -5.49495,92.0217 -8.13382,138.03262"
         style="fill:none;stroke:#000000;stroke-width:1px;stroke-linecap:butt;stroke-linejoin:miter;stroke-opacity:1"
         inkscape:original-d="m 251.71663,875.49884 0,137.38076" />
      <path
         inkscape:connector-curvature="0"
         id="path6183-6-9"
         d="m 282.51678,901.21934 c 1.71596,45.98973 3.50432,91.97948 5.36508,137.96926"
         style="fill:none;stroke:#000000;stroke-width:1px;stroke-linecap:butt;stroke-linejoin:miter;stroke-opacity:1"
         inkscape:original-d="m 279.96545,904.28818 0,137.38072" />
      <path
         inkscape:connector-curvature="0"
         id="path6183-4"
         d="m 375.80209,927.20777 -188.5039,-0.0657"
         style="fill:none;stroke:#000000;stroke-width:1px;stroke-linecap:butt;stroke-linejoin:miter;stroke-opacity:1"
         inkscape:original-d="m 347.2399,930.1337 -137.3807,0" />
      <path
         inkscape:connector-curvature="0"
         id="path6183-6-3"
         d="m 355.99372,955.58184 -201.92858,-0.002"
         style="fill:none;stroke:#000000;stroke-width:1px;stroke-linecap:butt;stroke-linejoin:miter;stroke-opacity:1"
         inkscape:original-d="m 328.55207,958.41797 -137.38069,0" />
      <path
         inkscape:connector-curvature="0"
         id="path6183-6-9-4"
         d="m 376.0972,983.96083 -215.35322,0.061"
         style="fill:none;stroke:#000000;stroke-width:1px;stroke-linecap:butt;stroke-linejoin:miter;stroke-opacity:1"
         inkscape:original-d="m 337.64345,986.70225 -137.38065,0" />
      <path
         inkscape:connector-curvature="0"
         id="path6183-6-9-6"
         d="m 316.3603,883.41768 c 6.16653,45.96863 12.40547,91.93727 18.7168,137.90592"
         style="fill:none;stroke:#000000;stroke-width:1px;stroke-linecap:butt;stroke-linejoin:miter;stroke-opacity:1"
         inkscape:original-d="m 308.21429,886.52898 0,137.38072" />
    </g>
  </g>
</svg>
